<svg id="svg" version="1.1" xmlns="http://www.w3.org/2000/svg" xmlns:xlink="http://www.w3.org/1999/xlink" width="400" height="400" viewBox="0, 0, 400,400"><g id="svgg"><path id="path0" d="M234.200 113.200 C 233.760 113.389,231.656 113.556,229.524 113.572 C 227.392 113.587,225.551 113.756,225.432 113.948 C 225.314 114.139,223.596 114.422,221.614 114.577 C 219.632 114.732,217.908 115.026,217.782 115.230 C 217.656 115.433,216.933 115.600,216.176 115.600 C 215.419 115.600,214.800 115.767,214.800 115.971 C 214.800 116.175,213.810 116.466,212.600 116.617 C 211.390 116.768,210.400 117.051,210.400 117.246 C 210.400 117.441,209.961 117.600,209.424 117.600 C 208.887 117.600,208.346 117.764,208.222 117.965 C 208.097 118.166,207.277 118.452,206.398 118.600 C 205.519 118.749,204.800 119.034,204.800 119.235 C 204.800 119.436,204.528 119.600,204.195 119.600 C 203.862 119.600,203.277 119.767,202.895 119.972 C 202.513 120.176,200.580 121.119,198.600 122.067 C 196.620 123.015,194.940 123.928,194.867 124.095 C 194.793 124.263,194.523 124.400,194.266 124.400 C 194.009 124.400,192.286 125.390,190.436 126.600 C 188.586 127.810,187.004 128.800,186.919 128.800 C 186.834 128.800,186.280 129.250,185.687 129.800 C 185.093 130.350,184.463 130.800,184.286 130.800 C 184.109 130.800,183.514 131.250,182.964 131.800 C 182.414 132.350,181.819 132.800,181.643 132.800 C 181.229 132.800,170.850 143.169,169.800 144.632 C 169.360 145.245,168.504 146.295,167.898 146.965 C 167.292 147.635,166.695 148.502,166.571 148.891 C 166.447 149.281,166.216 149.600,166.057 149.600 C 165.898 149.600,165.242 150.500,164.600 151.600 C 163.958 152.700,163.309 153.600,163.159 153.600 C 163.009 153.600,162.774 154.050,162.636 154.600 C 162.498 155.150,162.208 155.600,161.992 155.600 C 161.777 155.600,161.600 155.855,161.600 156.167 C 161.600 156.478,161.465 156.793,161.300 156.867 C 160.930 157.031,157.600 163.789,157.600 164.376 C 157.600 164.609,157.420 164.800,157.200 164.800 C 156.980 164.800,156.799 165.115,156.798 165.500 C 156.796 165.885,156.526 166.716,156.198 167.346 C 155.869 167.976,155.600 168.741,155.600 169.046 C 155.600 169.351,155.440 169.600,155.245 169.600 C 155.050 169.600,154.770 170.406,154.622 171.391 C 154.475 172.376,154.184 173.286,153.977 173.414 C 153.770 173.542,153.600 174.087,153.600 174.624 C 153.600 175.161,153.454 175.600,153.276 175.600 C 152.994 175.600,152.559 177.378,151.762 181.800 C 151.643 182.460,151.380 183.360,151.178 183.800 C 150.558 185.148,149.905 193.465,149.905 200.000 C 149.905 206.535,150.558 214.852,151.178 216.200 C 151.380 216.640,151.643 217.540,151.762 218.200 C 152.559 222.622,152.994 224.400,153.276 224.400 C 153.454 224.400,153.600 224.839,153.600 225.376 C 153.600 225.913,153.770 226.458,153.977 226.586 C 154.184 226.714,154.475 227.624,154.622 228.609 C 154.770 229.594,155.050 230.400,155.245 230.400 C 155.440 230.400,155.600 230.649,155.600 230.954 C 155.600 231.259,155.869 232.024,156.198 232.654 C 156.526 233.284,156.796 234.115,156.798 234.500 C 156.799 234.885,156.980 235.200,157.200 235.200 C 157.420 235.200,157.600 235.391,157.600 235.624 C 157.600 236.211,160.930 242.969,161.300 243.133 C 161.465 243.207,161.600 243.522,161.600 243.833 C 161.600 244.145,161.777 244.400,161.992 244.400 C 162.208 244.400,162.498 244.850,162.636 245.400 C 162.774 245.950,163.009 246.400,163.159 246.400 C 163.309 246.400,163.958 247.300,164.600 248.400 C 165.242 249.500,165.898 250.400,166.057 250.400 C 166.216 250.400,166.447 250.719,166.571 251.109 C 166.695 251.498,167.292 252.365,167.898 253.035 C 168.504 253.705,169.360 254.755,169.800 255.368 C 170.850 256.831,181.229 267.200,181.643 267.200 C 181.819 267.200,182.414 267.650,182.964 268.200 C 183.514 268.750,184.109 269.200,184.286 269.200 C 184.463 269.200,185.093 269.650,185.687 270.200 C 186.280 270.750,186.834 271.200,186.919 271.200 C 187.004 271.200,188.586 272.190,190.436 273.400 C 192.286 274.610,194.009 275.600,194.266 275.600 C 194.523 275.600,194.793 275.737,194.867 275.905 C 194.940 276.072,196.620 276.985,198.600 277.933 C 200.580 278.881,202.513 279.824,202.895 280.028 C 203.277 280.233,203.862 280.400,204.195 280.400 C 204.528 280.400,204.800 280.564,204.800 280.765 C 204.800 280.966,205.519 281.251,206.398 281.400 C 207.277 281.548,208.097 281.834,208.222 282.035 C 208.346 282.236,208.887 282.400,209.424 282.400 C 209.961 282.400,210.400 282.559,210.400 282.754 C 210.400 282.949,211.390 283.232,212.600 283.383 C 213.810 283.534,214.800 283.825,214.800 284.029 C 214.800 284.233,215.419 284.400,216.176 284.400 C 216.933 284.400,217.656 284.567,217.782 284.770 C 217.908 284.974,219.632 285.268,221.614 285.423 C 223.596 285.578,225.314 285.861,225.432 286.052 C 225.551 286.244,227.371 286.400,229.477 286.400 C 231.584 286.400,233.987 286.604,234.817 286.852 C 235.648 287.101,236.839 287.174,237.464 287.014 L 238.600 286.723 237.000 286.088 C 236.120 285.738,235.340 285.305,235.267 285.126 C 235.193 284.947,234.733 284.800,234.243 284.800 C 233.754 284.800,233.004 284.536,232.576 284.213 C 232.149 283.890,231.500 283.620,231.133 283.613 C 230.767 283.606,230.407 283.465,230.333 283.300 C 230.260 283.135,229.243 282.508,228.074 281.907 C 225.145 280.402,223.437 279.443,223.200 279.170 C 223.090 279.043,222.415 278.599,221.700 278.184 C 220.985 277.768,220.400 277.286,220.400 277.114 C 220.400 276.941,220.169 276.800,219.887 276.800 C 219.316 276.800,217.622 275.573,215.882 273.900 C 215.253 273.295,214.575 272.800,214.376 272.800 C 213.907 272.800,201.600 260.539,201.600 260.072 C 201.600 259.878,201.105 259.166,200.500 258.490 C 199.019 256.837,198.665 256.382,197.777 254.990 C 197.360 254.335,196.907 253.710,196.771 253.600 C 196.249 253.180,191.668 245.643,191.387 244.744 C 191.225 244.225,190.972 243.710,190.825 243.600 C 190.454 243.322,189.200 240.575,189.200 240.040 C 189.200 239.798,189.064 239.600,188.898 239.600 C 188.614 239.600,188.351 239.070,186.913 235.600 C 186.594 234.830,186.180 233.907,185.994 233.549 C 185.807 233.191,185.532 232.244,185.382 231.445 C 185.232 230.645,184.950 229.893,184.755 229.772 C 184.560 229.651,184.400 229.149,184.400 228.656 C 184.400 228.163,184.215 227.575,183.989 227.349 C 183.764 227.124,183.468 226.008,183.334 224.869 C 183.199 223.731,182.934 222.800,182.744 222.800 C 182.555 222.800,182.400 222.206,182.400 221.480 C 182.400 220.754,182.224 219.984,182.009 219.769 C 181.794 219.554,181.497 217.802,181.349 215.876 C 181.201 213.949,180.927 212.278,180.740 212.163 C 180.295 211.888,180.296 189.200,180.741 189.200 C 180.929 189.200,181.206 187.284,181.357 184.943 C 181.509 182.602,181.805 180.364,182.016 179.970 C 182.227 179.575,182.400 178.611,182.400 177.826 C 182.400 177.042,182.559 176.400,182.753 176.400 C 182.948 176.400,183.232 175.230,183.385 173.800 C 183.538 172.370,183.829 171.200,184.032 171.200 C 184.234 171.200,184.400 170.671,184.400 170.024 C 184.400 169.377,184.564 168.746,184.765 168.622 C 184.966 168.497,185.252 167.678,185.400 166.800 C 185.548 165.922,185.834 165.103,186.035 164.978 C 186.236 164.854,186.400 164.403,186.400 163.976 C 186.400 163.549,186.580 163.200,186.800 163.200 C 187.020 163.200,187.200 162.821,187.200 162.357 C 187.200 161.521,190.186 154.599,190.805 154.000 C 190.919 153.890,191.369 153.037,191.806 152.105 C 192.243 151.172,192.715 150.407,192.857 150.405 C 192.998 150.402,193.226 149.950,193.364 149.400 C 193.502 148.850,193.792 148.400,194.008 148.400 C 194.223 148.400,194.400 148.130,194.400 147.800 C 194.400 147.470,194.580 147.200,194.800 147.200 C 195.020 147.200,195.200 146.938,195.200 146.618 C 195.200 146.298,195.650 145.586,196.200 145.036 C 196.750 144.486,197.200 143.867,197.200 143.660 C 197.200 143.454,197.695 142.718,198.300 142.026 C 198.905 141.334,199.850 140.219,200.400 139.549 C 202.011 137.585,208.029 131.544,210.200 129.711 C 211.300 128.783,212.825 127.478,213.589 126.811 C 214.353 126.145,215.090 125.600,215.227 125.600 C 215.364 125.600,215.999 125.149,216.638 124.598 C 217.277 124.046,218.115 123.494,218.500 123.371 C 218.885 123.247,219.200 122.978,219.200 122.773 C 219.200 122.568,219.470 122.400,219.800 122.400 C 220.130 122.400,220.400 122.232,220.400 122.027 C 220.400 121.822,220.805 121.528,221.300 121.373 C 221.795 121.219,222.290 120.981,222.400 120.846 C 222.714 120.460,224.064 119.667,225.700 118.907 C 226.525 118.525,227.200 118.088,227.200 117.937 C 227.200 117.787,227.740 117.545,228.400 117.400 C 229.060 117.255,229.600 116.971,229.600 116.768 C 229.600 116.566,229.960 116.400,230.400 116.400 C 230.840 116.400,231.200 116.220,231.200 116.000 C 231.200 115.780,231.425 115.595,231.700 115.589 C 231.975 115.583,233.460 114.960,235.000 114.206 C 237.705 112.882,237.001 111.996,234.200 113.200 M262.400 113.599 C 259.430 113.984,256.550 114.403,256.000 114.529 C 247.504 116.486,248.233 116.268,241.000 119.026 C 216.677 128.299,196.396 150.299,189.398 175.000 C 189.024 176.320,188.564 177.850,188.376 178.400 C 185.082 188.039,185.082 211.961,188.376 221.600 C 188.564 222.150,189.021 223.680,189.391 225.000 C 190.140 227.672,190.654 229.217,191.387 231.000 C 191.658 231.660,192.122 232.830,192.417 233.600 C 200.812 255.489,220.206 273.361,245.800 282.794 C 247.987 283.600,251.508 284.502,256.600 285.560 C 270.715 288.492,290.493 286.809,303.000 281.610 C 303.440 281.427,305.060 280.767,306.600 280.143 C 309.028 279.160,312.500 277.460,316.000 275.543 C 317.460 274.743,325.051 269.686,325.672 269.100 C 325.963 268.825,327.101 267.889,328.201 267.020 C 338.108 259.191,349.354 243.691,353.610 232.000 C 353.891 231.230,354.342 230.060,354.614 229.400 C 355.178 228.029,356.609 223.152,357.549 219.400 C 360.278 208.506,360.276 191.111,357.545 180.600 C 356.253 175.625,355.263 172.266,354.599 170.600 C 354.335 169.940,353.891 168.770,353.610 168.000 C 349.366 156.342,338.080 140.787,328.201 132.980 C 327.101 132.111,325.963 131.175,325.672 130.900 C 325.051 130.314,317.460 125.257,316.000 124.457 C 312.500 122.540,309.028 120.840,306.600 119.857 C 305.060 119.233,303.440 118.573,303.000 118.390 C 292.209 113.905,275.371 111.918,262.400 113.599 " stroke="none" fill="#fcfaf7" fill-rule="evenodd"></path><path id="path1" d="M235.505 112.683 C 236.002 112.779,236.722 112.775,237.105 112.675 C 237.487 112.575,237.080 112.496,236.200 112.501 C 235.320 112.505,235.007 112.587,235.505 112.683 M270.100 112.697 C 271.585 112.774,274.015 112.774,275.500 112.697 C 276.985 112.620,275.770 112.557,272.800 112.557 C 269.830 112.557,268.615 112.620,270.100 112.697 M158.367 112.958 C 158.275 113.045,156.220 113.319,153.800 113.567 C 148.645 114.095,146.085 114.595,140.200 116.227 C 136.391 117.284,134.397 117.968,131.000 119.386 C 130.120 119.754,129.040 120.204,128.600 120.387 C 118.214 124.709,106.853 133.098,98.138 142.879 C 96.313 144.927,90.800 152.245,90.800 152.619 C 90.800 152.794,90.548 153.221,90.241 153.569 C 88.220 155.850,81.874 169.405,80.769 173.800 C 80.603 174.460,80.121 176.260,79.698 177.800 C 77.570 185.538,77.000 190.231,77.000 200.000 C 77.000 207.175,77.533 213.714,78.403 217.200 C 80.238 224.558,80.380 225.054,81.899 229.400 C 83.822 234.904,88.524 244.507,90.238 246.431 C 90.547 246.779,90.800 247.206,90.800 247.381 C 90.800 247.755,96.313 255.073,98.138 257.121 C 107.045 267.117,117.838 275.040,129.000 279.775 C 129.880 280.149,131.050 280.646,131.600 280.881 C 134.528 282.129,138.910 283.511,144.000 284.790 C 149.084 286.068,155.080 286.798,162.400 287.031 L 168.200 287.215 164.400 285.683 C 159.408 283.671,155.494 281.778,152.924 280.134 C 151.777 279.400,150.742 278.800,150.624 278.800 C 150.156 278.800,143.228 273.675,140.400 271.237 C 127.784 260.363,117.206 244.511,112.215 229.000 C 110.719 224.351,110.550 223.730,109.827 220.200 C 109.467 218.440,108.970 216.190,108.723 215.200 C 108.077 212.607,107.834 194.658,108.376 189.600 C 109.011 183.671,110.101 176.915,110.796 174.600 C 110.994 173.940,111.454 172.320,111.817 171.000 C 116.942 152.405,125.756 139.597,143.026 125.651 C 146.451 122.885,158.126 116.286,164.200 113.683 L 166.200 112.826 162.367 112.813 C 160.258 112.806,158.458 112.871,158.367 112.958 M189.604 113.251 C 187.956 113.441,186.426 113.678,186.204 113.776 C 185.611 114.039,192.327 113.548,194.200 113.192 L 195.800 112.888 194.200 112.896 C 193.320 112.900,191.252 113.060,189.604 113.251 M198.864 114.064 C 197.909 114.503,197.206 114.940,197.302 115.035 C 197.398 115.131,198.449 114.768,199.638 114.228 C 200.827 113.688,201.530 113.251,201.200 113.257 C 200.870 113.263,199.819 113.626,198.864 114.064 M224.500 113.476 C 224.885 113.576,225.515 113.576,225.900 113.476 C 226.285 113.375,225.970 113.293,225.200 113.293 C 224.430 113.293,224.115 113.375,224.500 113.476 M182.400 114.400 L 181.400 114.720 182.400 114.713 C 182.950 114.709,183.940 114.568,184.600 114.400 L 185.800 114.095 184.600 114.087 C 183.940 114.083,182.950 114.224,182.400 114.400 M218.400 114.400 C 217.596 114.657,217.557 114.723,218.200 114.732 C 218.640 114.738,219.360 114.589,219.800 114.400 C 220.819 113.962,219.768 113.962,218.400 114.400 M178.200 115.407 L 176.600 115.952 178.200 115.725 C 179.888 115.485,181.581 114.806,180.400 114.843 C 180.070 114.853,179.080 115.107,178.200 115.407 M174.600 116.400 C 174.096 116.617,174.022 116.744,174.400 116.744 C 174.730 116.744,175.360 116.589,175.800 116.400 C 176.304 116.183,176.378 116.056,176.000 116.056 C 175.670 116.056,175.040 116.211,174.600 116.400 M169.400 118.214 C 168.400 118.696,168.366 118.751,169.200 118.548 C 170.333 118.271,171.607 117.621,171.000 117.630 C 170.780 117.633,170.060 117.896,169.400 118.214 M165.400 119.813 C 164.300 120.364,163.760 120.698,164.200 120.554 C 166.154 119.914,167.606 119.327,167.859 119.074 C 168.417 118.516,167.343 118.839,165.400 119.813 M185.400 121.262 C 181.933 123.423,176.696 127.259,174.055 129.571 C 172.655 130.797,170.945 132.295,170.255 132.899 C 169.565 133.504,169.157 133.999,169.349 133.999 C 169.541 134.000,170.880 132.895,172.324 131.544 C 175.269 128.789,180.967 124.469,184.955 121.969 C 186.410 121.057,187.600 120.241,187.600 120.155 C 187.600 119.903,187.493 119.958,185.400 121.262 M157.462 123.647 C 156.616 124.093,156.009 124.542,156.112 124.645 C 156.302 124.836,159.200 123.255,159.200 122.960 C 159.200 122.734,159.171 122.745,157.462 123.647 M154.100 125.646 C 152.737 126.519,152.295 127.106,153.500 126.443 C 154.418 125.939,155.856 124.827,155.600 124.819 C 155.490 124.816,154.815 125.188,154.100 125.646 M149.377 128.757 C 147.850 129.833,145.790 131.466,144.800 132.386 C 143.303 133.776,143.472 133.694,145.800 131.896 C 147.340 130.708,149.455 129.134,150.500 128.400 C 152.206 127.200,152.651 126.800,152.277 126.800 C 152.210 126.800,150.905 127.681,149.377 128.757 M207.781 132.500 L 206.200 134.200 207.900 132.619 C 209.481 131.148,209.784 130.800,209.481 130.800 C 209.416 130.800,208.651 131.565,207.781 132.500 M329.200 133.325 C 329.200 133.394,329.785 133.979,330.500 134.625 L 331.800 135.800 330.625 134.500 C 329.530 133.288,329.200 133.016,329.200 133.325 M141.262 135.262 C 140.526 135.919,139.986 136.519,140.062 136.595 C 140.138 136.672,140.803 136.196,141.538 135.538 C 142.274 134.881,142.814 134.281,142.738 134.205 C 142.662 134.128,141.997 134.604,141.262 135.262 M177.578 135.500 L 176.200 137.000 177.700 135.622 C 178.525 134.863,179.200 134.188,179.200 134.122 C 179.200 133.816,178.862 134.104,177.578 135.500 M166.420 136.833 C 164.347 139.131,162.244 141.857,163.668 140.400 C 166.705 137.292,169.259 134.401,168.963 134.408 C 168.764 134.413,167.619 135.504,166.420 136.833 M203.785 136.500 L 201.800 138.600 203.900 136.615 C 205.851 134.771,206.183 134.400,205.885 134.400 C 205.822 134.400,204.877 135.345,203.785 136.500 M210.800 138.200 C 209.161 139.850,207.910 141.200,208.020 141.200 C 208.130 141.200,209.561 139.850,211.200 138.200 C 212.839 136.550,214.090 135.200,213.980 135.200 C 213.870 135.200,212.439 136.550,210.800 138.200 M134.496 142.168 C 131.678 145.318,127.125 151.376,126.356 153.000 C 126.125 153.486,126.256 153.411,126.688 152.807 C 127.080 152.262,128.682 150.102,130.248 148.007 C 133.061 144.247,133.570 143.636,136.338 140.707 C 137.113 139.886,137.670 139.149,137.574 139.069 C 137.478 138.988,136.093 140.383,134.496 142.168 M172.181 140.900 L 170.600 142.600 172.300 141.019 C 173.881 139.548,174.184 139.200,173.881 139.200 C 173.816 139.200,173.051 139.965,172.181 140.900 M161.825 142.339 C 161.399 142.923,160.612 143.985,160.077 144.700 C 159.543 145.415,159.195 146.000,159.304 146.000 C 159.587 146.000,162.901 141.566,162.736 141.409 C 162.661 141.337,162.251 141.756,161.825 142.339 M169.375 144.100 L 168.200 145.400 169.500 144.225 C 170.712 143.130,170.984 142.800,170.675 142.800 C 170.606 142.800,170.021 143.385,169.375 144.100 M158.553 146.900 C 157.176 149.236,157.086 149.435,157.787 148.600 C 158.600 147.632,159.300 146.400,159.038 146.400 C 158.933 146.400,158.715 146.625,158.553 146.900 M155.987 151.021 C 155.504 151.803,155.177 152.511,155.261 152.594 C 155.345 152.678,155.820 152.038,156.318 151.173 C 157.447 149.213,157.180 149.090,155.987 151.021 M125.353 154.500 C 123.976 156.836,123.886 157.035,124.587 156.200 C 125.400 155.232,126.100 154.000,125.838 154.000 C 125.733 154.000,125.515 154.225,125.353 154.500 M151.985 158.830 C 151.527 159.726,151.213 160.639,151.286 160.857 C 151.359 161.076,151.804 160.342,152.275 159.227 C 153.304 156.791,153.140 156.566,151.985 158.830 M121.681 161.009 C 121.202 161.994,120.943 162.798,121.105 162.796 C 121.416 162.792,122.887 159.554,122.675 159.341 C 122.607 159.273,122.159 160.024,121.681 161.009 M150.379 162.655 C 150.158 163.236,150.052 163.785,150.143 163.876 C 150.233 163.967,150.499 163.492,150.733 162.820 C 151.253 161.328,150.939 161.182,150.379 162.655 M149.400 165.200 C 149.250 165.673,149.217 166.150,149.327 166.260 C 149.437 166.370,149.650 166.073,149.800 165.600 C 149.950 165.127,149.983 164.650,149.873 164.540 C 149.763 164.430,149.550 164.727,149.400 165.200 M119.250 166.250 C 118.986 166.829,118.862 167.395,118.974 167.507 C 119.086 167.619,119.368 167.211,119.600 166.600 C 120.149 165.157,119.873 164.882,119.250 166.250 M148.695 167.473 C 148.594 167.653,148.403 168.340,148.272 169.000 C 148.034 170.194,148.036 170.193,148.637 168.853 C 149.160 167.686,149.208 166.568,148.695 167.473 M118.044 169.244 C 117.798 169.951,117.663 170.596,117.744 170.678 C 117.826 170.759,118.121 170.274,118.400 169.600 C 118.679 168.926,118.814 168.281,118.700 168.167 C 118.586 168.053,118.291 168.538,118.044 169.244 M147.400 171.600 C 147.248 172.291,147.214 172.947,147.324 173.057 C 147.434 173.167,147.648 172.691,147.800 172.000 C 147.952 171.309,147.986 170.653,147.876 170.543 C 147.766 170.433,147.552 170.909,147.400 171.600 M116.229 174.629 C 116.081 175.215,116.038 175.772,116.132 175.866 C 116.227 175.960,116.424 175.558,116.571 174.971 C 116.719 174.385,116.762 173.828,116.668 173.734 C 116.573 173.640,116.376 174.042,116.229 174.629 M146.658 174.670 C 146.539 175.071,146.349 176.120,146.234 177.000 C 146.075 178.229,146.157 178.093,146.590 176.410 C 147.105 174.410,147.161 172.961,146.658 174.670 M183.429 175.029 C 183.281 175.615,183.238 176.172,183.332 176.266 C 183.427 176.360,183.624 175.958,183.771 175.371 C 183.919 174.785,183.962 174.228,183.868 174.134 C 183.773 174.040,183.576 174.442,183.429 175.029 M115.424 177.500 C 115.280 178.105,115.060 178.960,114.936 179.400 C 114.786 179.930,114.844 180.065,115.107 179.800 C 115.513 179.390,116.177 176.400,115.861 176.400 C 115.765 176.400,115.569 176.895,115.424 177.500 M145.382 180.582 C 145.229 181.602,145.194 182.527,145.304 182.637 C 145.414 182.747,145.629 182.002,145.782 180.982 C 145.935 179.961,145.970 179.037,145.860 178.927 C 145.750 178.817,145.535 179.561,145.382 180.582 M114.200 182.800 C 114.046 183.710,114.004 184.538,114.107 184.640 C 114.210 184.743,114.413 184.077,114.560 183.160 C 114.707 182.243,114.748 181.415,114.653 181.320 C 114.558 181.224,114.354 181.890,114.200 182.800 M144.668 185.070 C 144.555 185.471,144.372 187.600,144.261 189.800 L 144.060 193.800 144.608 189.212 C 145.122 184.915,145.144 183.377,144.668 185.070 M113.464 186.882 C 112.927 190.859,112.715 193.386,112.937 193.180 C 113.224 192.912,114.088 185.554,113.858 185.325 C 113.769 185.236,113.592 185.936,113.464 186.882 M181.301 187.800 C 181.305 188.680,181.387 188.993,181.483 188.495 C 181.579 187.998,181.575 187.278,181.475 186.895 C 181.375 186.513,181.296 186.920,181.301 187.800 M359.293 189.200 C 359.293 189.970,359.375 190.285,359.476 189.900 C 359.576 189.515,359.576 188.885,359.476 188.500 C 359.375 188.115,359.293 188.430,359.293 189.200 M149.324 193.800 C 149.326 195.120,149.401 195.612,149.490 194.893 C 149.579 194.174,149.577 193.094,149.486 192.493 C 149.395 191.892,149.322 192.480,149.324 193.800 M180.893 192.800 C 180.893 193.570,180.975 193.885,181.076 193.500 C 181.176 193.115,181.176 192.485,181.076 192.100 C 180.975 191.715,180.893 192.030,180.893 192.800 M185.331 196.200 C 185.333 197.740,185.405 198.321,185.492 197.491 C 185.579 196.661,185.577 195.401,185.489 194.691 C 185.400 193.981,185.329 194.660,185.331 196.200 M143.759 201.600 C 143.759 204.790,143.821 206.095,143.897 204.500 C 143.973 202.905,143.973 200.295,143.897 198.700 C 143.821 197.105,143.759 198.410,143.759 201.600 M112.524 199.400 C 112.526 200.720,112.601 201.212,112.690 200.493 C 112.779 199.774,112.777 198.694,112.686 198.093 C 112.595 197.492,112.522 198.080,112.524 199.400 M180.540 201.600 C 180.540 203.470,180.609 204.235,180.693 203.300 C 180.777 202.365,180.777 200.835,180.693 199.900 C 180.609 198.965,180.540 199.730,180.540 201.600 M185.334 203.600 C 185.334 205.250,185.405 205.925,185.491 205.100 C 185.578 204.275,185.578 202.925,185.491 202.100 C 185.405 201.275,185.334 201.950,185.334 203.600 M149.324 206.200 C 149.326 207.520,149.401 208.012,149.490 207.293 C 149.579 206.574,149.577 205.494,149.486 204.893 C 149.395 204.292,149.322 204.880,149.324 206.200 M113.076 209.511 C 113.202 211.112,113.448 213.002,113.622 213.711 C 113.821 214.519,113.859 213.956,113.723 212.200 C 113.604 210.660,113.358 208.770,113.177 208.000 C 112.958 207.073,112.924 207.584,113.076 209.511 M144.101 209.800 C 144.105 210.680,144.187 210.993,144.283 210.495 C 144.379 209.998,144.375 209.278,144.275 208.895 C 144.175 208.513,144.096 208.920,144.101 209.800 M359.293 210.800 C 359.293 211.570,359.375 211.885,359.476 211.500 C 359.576 211.115,359.576 210.485,359.476 210.100 C 359.375 209.715,359.293 210.030,359.293 210.800 M144.406 213.233 C 144.409 214.205,144.585 215.270,144.796 215.600 C 145.052 216.001,145.098 215.470,144.934 214.000 C 144.627 211.252,144.398 210.920,144.406 213.233 M114.087 216.000 C 114.083 216.550,114.224 217.450,114.400 218.000 C 114.831 219.344,114.831 217.892,114.400 216.200 C 114.126 215.122,114.094 215.102,114.087 216.000 M145.268 218.200 C 145.274 218.640,145.424 219.450,145.600 220.000 L 145.920 221.000 145.932 220.000 C 145.938 219.450,145.789 218.640,145.600 218.200 L 145.256 217.400 145.268 218.200 M182.068 218.000 C 182.088 219.039,182.718 220.746,182.732 219.800 C 182.738 219.360,182.589 218.640,182.400 218.200 C 182.189 217.710,182.061 217.632,182.068 218.000 M115.031 221.000 C 115.545 223.141,116.004 223.914,115.745 222.200 C 115.612 221.320,115.332 220.420,115.123 220.200 C 114.882 219.946,114.848 220.238,115.031 221.000 M146.258 222.600 C 146.392 223.480,146.656 224.470,146.844 224.800 C 147.258 225.526,146.834 222.971,146.346 221.800 C 146.136 221.295,146.103 221.591,146.258 222.600 M116.056 224.400 C 116.056 224.730,116.211 225.360,116.400 225.800 C 116.617 226.304,116.744 226.378,116.744 226.000 C 116.744 225.670,116.589 225.040,116.400 224.600 C 116.183 224.096,116.056 224.022,116.056 224.400 M147.212 226.400 C 147.212 226.730,147.387 227.270,147.600 227.600 C 147.945 228.133,147.988 228.133,147.988 227.600 C 147.988 227.270,147.813 226.730,147.600 226.400 C 147.255 225.867,147.212 225.867,147.212 226.400 M148.219 229.401 C 148.375 230.060,148.657 230.768,148.845 230.973 C 149.032 231.178,149.015 230.749,148.805 230.019 C 148.318 228.318,147.844 227.819,148.219 229.401 M117.832 230.000 C 118.216 231.452,118.776 232.403,118.774 231.600 C 118.773 231.270,118.501 230.550,118.169 230.000 L 117.567 229.000 117.832 230.000 M118.814 232.620 C 118.822 232.829,119.099 233.450,119.431 234.000 L 120.033 235.000 119.772 234.000 C 119.499 232.957,118.789 231.933,118.814 232.620 M150.218 234.900 C 150.368 235.395,150.655 235.976,150.856 236.191 C 151.057 236.406,151.019 236.001,150.772 235.291 C 150.265 233.838,149.797 233.508,150.218 234.900 M121.681 238.991 C 122.159 239.976,122.607 240.727,122.675 240.659 C 122.887 240.446,121.416 237.208,121.105 237.204 C 120.943 237.202,121.202 238.006,121.681 238.991 M153.205 241.316 C 153.197 241.850,154.844 244.889,155.037 244.696 C 155.137 244.596,154.767 243.724,154.214 242.757 C 153.662 241.791,153.207 241.142,153.205 241.316 M124.349 243.800 C 124.565 244.240,125.034 244.960,125.393 245.400 L 126.044 246.200 125.651 245.400 C 125.435 244.960,124.966 244.240,124.607 243.800 L 123.956 243.000 124.349 243.800 M155.891 246.490 C 156.281 247.310,156.741 247.985,156.914 247.990 C 157.272 248.001,156.762 246.980,155.820 245.800 C 155.306 245.156,155.320 245.291,155.891 246.490 M126.624 247.400 C 128.656 250.962,137.639 262.034,137.585 260.910 C 137.577 260.740,136.560 259.520,135.325 258.200 C 133.438 256.183,131.064 253.164,126.670 247.193 C 125.946 246.209,125.946 246.211,126.624 247.400 M157.200 248.625 C 157.200 249.042,162.589 256.800,162.878 256.800 C 163.036 256.800,162.164 255.405,160.941 253.701 C 159.719 251.996,158.462 250.106,158.149 249.501 C 157.621 248.480,157.200 248.092,157.200 248.625 M163.441 257.600 C 163.607 257.930,164.566 259.187,165.572 260.394 C 168.200 263.548,168.800 264.189,168.800 263.849 C 168.800 263.682,167.910 262.523,166.823 261.273 C 165.735 260.023,164.462 258.550,163.992 258.000 C 163.523 257.450,163.275 257.270,163.441 257.600 M171.983 258.900 C 173.641 260.666,174.000 260.984,174.000 260.683 C 174.000 260.619,173.145 259.764,172.100 258.783 L 170.200 257.000 171.983 258.900 M208.000 258.910 C 208.000 258.971,209.395 260.366,211.100 262.010 L 214.200 265.000 211.210 261.900 C 208.433 259.021,208.000 258.617,208.000 258.910 M204.783 262.900 C 205.764 263.945,206.619 264.800,206.683 264.800 C 206.984 264.800,206.666 264.441,204.900 262.783 L 203.000 261.000 204.783 262.900 M140.029 263.461 C 140.045 263.647,140.675 264.313,141.429 264.939 C 142.183 265.566,142.787 265.926,142.771 265.739 C 142.755 265.553,142.125 264.887,141.371 264.261 C 140.617 263.634,140.013 263.274,140.029 263.461 M177.600 264.600 C 178.346 265.370,179.047 266.000,179.157 266.000 C 179.267 266.000,178.746 265.370,178.000 264.600 C 177.254 263.830,176.553 263.200,176.443 263.200 C 176.333 263.200,176.854 263.830,177.600 264.600 M171.200 266.600 C 172.395 267.810,173.463 268.800,173.573 268.800 C 173.683 268.800,172.795 267.810,171.600 266.600 C 170.405 265.390,169.337 264.400,169.227 264.400 C 169.117 264.400,170.005 265.390,171.200 266.600 M330.175 265.700 L 329.000 267.000 330.300 265.825 C 331.015 265.179,331.600 264.594,331.600 264.525 C 331.600 264.216,331.270 264.488,330.175 265.700 M143.794 266.761 C 144.986 268.127,152.400 273.600,152.400 273.114 C 152.400 273.016,151.545 272.335,150.500 271.600 C 149.455 270.866,147.340 269.272,145.800 268.058 C 144.260 266.845,143.357 266.261,143.794 266.761 M210.400 268.525 C 210.400 268.594,210.985 269.179,211.700 269.825 L 213.000 271.000 211.825 269.700 C 210.730 268.488,210.400 268.216,210.400 268.525 M174.625 269.900 C 175.761 270.925,179.274 273.736,180.200 274.361 C 181.050 274.933,179.910 273.884,176.528 270.979 C 174.586 269.311,172.936 268.376,174.625 269.900 M153.400 273.807 C 153.840 274.166,154.560 274.635,155.000 274.851 L 155.800 275.244 155.000 274.593 C 154.560 274.234,153.840 273.765,153.400 273.549 L 152.600 273.156 153.400 273.807 M181.200 275.102 C 181.200 275.281,181.740 275.746,182.400 276.136 C 183.060 276.526,183.600 276.779,183.600 276.698 C 183.600 276.617,183.060 276.151,182.400 275.663 C 181.740 275.175,181.200 274.923,181.200 275.102 M156.000 275.392 C 156.000 275.497,156.720 275.951,157.600 276.400 C 159.583 277.412,159.700 277.174,157.777 276.040 C 156.312 275.175,156.000 275.061,156.000 275.392 M184.003 277.096 C 184.005 277.419,186.427 278.907,186.626 278.708 C 186.690 278.643,186.126 278.186,185.371 277.692 C 184.617 277.197,184.001 276.929,184.003 277.096 M164.800 279.926 C 166.376 280.796,168.362 281.470,167.893 280.976 C 167.617 280.685,166.646 280.279,164.200 279.431 C 163.760 279.278,164.030 279.501,164.800 279.926 M188.345 280.023 C 189.085 280.474,189.777 280.757,189.882 280.651 C 190.084 280.450,187.873 279.199,187.320 279.201 C 187.144 279.202,187.605 279.572,188.345 280.023 M190.600 281.144 C 191.262 281.781,197.608 284.865,197.975 284.728 C 198.162 284.657,196.490 283.736,194.258 282.679 C 192.026 281.623,190.380 280.932,190.600 281.144 M168.800 281.533 C 169.130 281.736,169.850 282.024,170.400 282.171 C 171.095 282.357,171.217 282.325,170.800 282.067 C 170.470 281.864,169.750 281.576,169.200 281.429 C 168.505 281.243,168.383 281.275,168.800 281.533 M174.600 283.600 C 175.040 283.789,175.670 283.944,176.000 283.944 C 176.378 283.944,176.304 283.817,175.800 283.600 C 175.360 283.411,174.730 283.256,174.400 283.256 C 174.022 283.256,174.096 283.383,174.600 283.600 M177.400 284.346 C 178.571 284.834,181.126 285.258,180.400 284.844 C 180.070 284.656,179.080 284.392,178.200 284.258 C 177.191 284.103,176.895 284.136,177.400 284.346 M198.800 285.031 C 198.800 285.301,200.878 286.056,201.076 285.857 C 201.167 285.767,200.692 285.501,200.020 285.267 C 199.349 285.033,198.800 284.927,198.800 285.031 M182.400 285.600 C 182.950 285.776,183.940 285.917,184.600 285.913 L 185.800 285.905 184.600 285.600 C 183.940 285.432,182.950 285.291,182.400 285.287 L 181.400 285.280 182.400 285.600 M187.400 286.387 C 188.280 286.565,190.530 286.812,192.400 286.934 C 194.717 287.085,195.227 287.054,194.000 286.834 C 191.479 286.383,185.325 285.966,187.400 286.387 M224.500 286.676 C 224.885 286.776,225.515 286.776,225.900 286.676 C 226.285 286.575,225.970 286.493,225.200 286.493 C 224.430 286.493,224.115 286.575,224.500 286.676 M270.100 287.497 C 271.585 287.574,274.015 287.574,275.500 287.497 C 276.985 287.420,275.770 287.357,272.800 287.357 C 269.830 287.357,268.615 287.420,270.100 287.497 " stroke="none" fill="#fbdba3" fill-rule="evenodd"></path><path id="path2" d="M193.000 113.276 C 187.713 113.947,180.598 115.133,178.121 115.757 C 174.831 116.585,168.298 118.797,167.820 119.244 C 167.611 119.440,167.205 119.600,166.918 119.600 C 166.632 119.600,164.733 120.408,162.698 121.395 C 149.288 127.904,138.846 136.454,130.183 148.019 C 127.481 151.627,123.600 157.713,123.600 158.343 C 123.600 158.594,123.460 158.800,123.288 158.800 C 123.116 158.800,122.627 159.700,122.200 160.800 C 121.773 161.900,121.284 162.800,121.112 162.800 C 120.940 162.800,120.800 163.072,120.800 163.405 C 120.800 163.738,120.629 164.323,120.419 164.705 C 120.210 165.087,119.785 166.030,119.476 166.800 C 119.166 167.570,118.688 168.740,118.413 169.400 C 117.624 171.294,116.026 176.447,115.749 177.993 C 115.609 178.767,115.369 179.580,115.214 179.800 C 115.059 180.020,114.619 182.360,114.236 185.000 C 113.853 187.640,113.374 190.775,113.170 191.967 C 112.692 194.767,112.692 205.233,113.170 208.033 C 113.374 209.225,113.853 212.360,114.236 215.000 C 114.619 217.640,115.059 219.980,115.214 220.200 C 115.369 220.420,115.609 221.233,115.749 222.007 C 116.026 223.553,117.624 228.706,118.413 230.600 C 118.688 231.260,119.166 232.430,119.476 233.200 C 119.785 233.970,120.210 234.913,120.419 235.295 C 120.629 235.677,120.800 236.262,120.800 236.595 C 120.800 236.928,120.940 237.200,121.112 237.200 C 121.284 237.200,121.773 238.100,122.200 239.200 C 122.627 240.300,123.116 241.200,123.288 241.200 C 123.460 241.200,123.600 241.406,123.600 241.657 C 123.600 242.287,127.481 248.373,130.183 251.981 C 138.846 263.546,149.288 272.096,162.698 278.605 C 164.733 279.592,166.632 280.400,166.918 280.400 C 167.205 280.400,167.611 280.560,167.820 280.756 C 168.300 281.205,174.849 283.420,178.121 284.240 C 184.048 285.725,195.547 287.226,200.600 287.176 L 203.800 287.144 201.524 286.262 C 200.272 285.777,199.117 285.250,198.957 285.090 C 198.797 284.931,198.412 284.800,198.101 284.800 C 197.290 284.800,187.784 279.948,187.200 279.236 C 187.090 279.102,186.325 278.638,185.500 278.205 C 184.675 277.772,184.000 277.291,184.000 277.136 C 184.000 276.981,183.672 276.750,183.271 276.622 C 182.869 276.495,182.194 276.078,181.769 275.695 C 181.344 275.313,179.921 274.190,178.606 273.200 C 177.291 272.210,174.219 269.420,171.780 267.000 C 167.929 263.179,166.332 261.381,162.663 256.734 C 161.179 254.855,157.200 248.820,157.200 248.449 C 157.200 248.239,157.065 248.007,156.900 247.933 C 156.116 247.585,151.261 237.756,149.623 233.200 C 149.346 232.430,148.976 231.440,148.802 231.000 C 145.242 222.026,143.381 209.824,143.799 198.200 C 144.126 189.094,144.854 182.624,146.185 177.000 C 146.549 175.460,146.942 173.750,147.058 173.200 C 147.322 171.950,148.352 168.466,148.773 167.400 C 148.947 166.960,149.315 165.880,149.591 165.000 C 150.243 162.920,150.918 161.321,152.831 157.324 C 153.694 155.522,154.400 153.857,154.400 153.624 C 154.400 153.391,154.580 153.200,154.800 153.200 C 155.020 153.200,155.200 152.967,155.200 152.683 C 155.200 152.123,161.047 143.107,162.258 141.800 C 162.666 141.359,163.494 140.338,164.098 139.529 C 167.900 134.438,178.012 125.778,185.400 121.288 C 190.080 118.443,199.091 113.814,201.195 113.174 C 202.589 112.751,196.551 112.825,193.000 113.276 M228.200 113.200 C 226.497 113.434,226.734 113.479,229.800 113.509 C 231.780 113.528,233.760 113.389,234.200 113.200 C 235.169 112.784,231.235 112.784,228.200 113.200 M235.662 113.852 C 234.486 114.405,233.607 114.940,233.709 115.042 C 233.810 115.144,235.043 114.686,236.447 114.025 C 237.851 113.365,238.730 112.829,238.400 112.836 C 238.070 112.842,236.838 113.300,235.662 113.852 M265.700 113.076 C 266.085 113.176,266.715 113.176,267.100 113.076 C 267.485 112.975,267.170 112.893,266.400 112.893 C 265.630 112.893,265.315 112.975,265.700 113.076 M278.305 113.083 C 278.802 113.179,279.522 113.175,279.905 113.075 C 280.287 112.975,279.880 112.896,279.000 112.901 C 278.120 112.905,277.807 112.987,278.305 113.083 M261.900 113.482 C 262.395 113.578,263.205 113.578,263.700 113.482 C 264.195 113.387,263.790 113.309,262.800 113.309 C 261.810 113.309,261.405 113.387,261.900 113.482 M281.500 113.482 C 281.995 113.578,282.805 113.578,283.300 113.482 C 283.795 113.387,283.390 113.309,282.400 113.309 C 281.410 113.309,281.005 113.387,281.500 113.482 M221.674 114.009 C 220.504 114.180,219.435 114.432,219.297 114.569 C 218.908 114.959,224.951 114.342,225.380 113.949 C 225.820 113.545,224.744 113.562,221.674 114.009 M288.600 114.400 C 289.040 114.589,289.760 114.738,290.200 114.732 C 290.843 114.723,290.804 114.657,290.000 114.400 C 288.632 113.962,287.581 113.962,288.600 114.400 M216.000 115.200 C 215.045 115.506,215.057 115.522,216.276 115.560 C 216.978 115.582,217.664 115.420,217.800 115.200 C 218.084 114.740,217.436 114.740,216.000 115.200 M292.400 115.182 C 292.730 115.405,293.345 115.591,293.767 115.594 C 294.790 115.602,294.471 115.373,293.000 115.044 C 292.124 114.848,291.962 114.885,292.400 115.182 M231.900 115.476 C 231.515 115.576,231.200 115.809,231.200 115.992 C 231.200 116.404,232.731 116.035,233.030 115.552 C 233.257 115.184,233.064 115.171,231.900 115.476 M212.880 115.995 C 211.101 116.416,210.649 116.982,212.350 116.657 C 213.093 116.516,213.947 116.400,214.250 116.400 C 214.553 116.400,214.800 116.220,214.800 116.000 C 214.800 115.554,214.741 115.554,212.880 115.995 M207.600 117.669 C 206.390 118.108,205.310 118.563,205.200 118.681 C 204.858 119.045,207.778 118.337,208.180 117.958 C 208.389 117.761,208.974 117.600,209.480 117.600 C 209.986 117.600,210.400 117.420,210.400 117.200 C 210.400 116.685,210.230 116.713,207.600 117.669 M228.000 117.492 C 227.670 117.617,227.310 117.837,227.200 117.981 C 227.090 118.124,226.370 118.552,225.600 118.932 C 223.938 119.751,222.677 120.506,222.400 120.846 C 222.290 120.981,221.795 121.219,221.300 121.373 C 220.805 121.528,220.400 121.822,220.400 122.027 C 220.400 122.232,220.130 122.400,219.800 122.400 C 219.470 122.400,219.200 122.539,219.200 122.709 C 219.200 122.879,218.570 123.357,217.800 123.772 C 217.030 124.187,216.400 124.666,216.400 124.836 C 216.400 125.007,216.081 125.247,215.691 125.371 C 215.302 125.495,214.425 126.092,213.744 126.698 C 213.063 127.304,211.755 128.408,210.837 129.151 C 209.919 129.893,209.257 130.591,209.367 130.700 C 209.476 130.809,210.358 130.201,211.326 129.349 C 214.222 126.802,220.728 122.299,225.100 119.816 C 227.355 118.535,229.200 117.423,229.200 117.344 C 229.200 117.154,228.738 117.211,228.000 117.492 M200.600 120.527 C 192.784 124.159,182.248 130.800,184.304 130.800 C 184.471 130.800,185.093 130.350,185.687 129.800 C 186.280 129.250,186.834 128.800,186.919 128.800 C 187.004 128.800,188.586 127.810,190.436 126.600 C 192.286 125.390,194.009 124.400,194.266 124.400 C 194.523 124.400,194.793 124.263,194.867 124.095 C 194.940 123.928,196.620 123.015,198.600 122.067 C 200.580 121.119,202.513 120.176,202.895 119.972 C 203.277 119.767,203.862 119.600,204.195 119.600 C 204.528 119.600,204.800 119.420,204.800 119.200 C 204.800 118.614,204.547 118.694,200.600 120.527 M318.200 125.807 C 318.640 126.166,319.360 126.635,319.800 126.851 L 320.600 127.244 319.800 126.593 C 319.360 126.234,318.640 125.765,318.200 125.549 L 317.400 125.156 318.200 125.807 M221.185 129.629 L 219.800 130.858 221.300 129.781 C 222.626 128.830,223.057 128.400,222.685 128.400 C 222.622 128.400,221.947 128.953,221.185 129.629 M179.808 133.872 C 176.074 137.088,170.741 142.474,171.016 142.750 C 171.106 142.839,173.459 140.637,176.246 137.856 C 179.033 135.075,181.440 132.800,181.595 132.800 C 182.035 132.800,183.751 131.218,183.540 131.007 C 183.437 130.904,181.757 132.193,179.808 133.872 M204.802 134.765 C 202.931 136.726,200.950 138.878,200.400 139.549 C 199.850 140.219,198.905 141.334,198.300 142.026 C 197.334 143.131,196.912 144.000,197.341 144.000 C 197.419 144.000,198.360 142.875,199.433 141.500 C 200.506 140.125,203.080 137.245,205.152 135.100 C 207.225 132.955,208.759 131.200,208.562 131.200 C 208.365 131.200,206.673 132.804,204.802 134.765 M328.400 132.925 C 328.400 132.994,328.985 133.579,329.700 134.225 L 331.000 135.400 329.825 134.100 C 328.730 132.888,328.400 132.616,328.400 132.925 M211.193 138.300 L 207.000 142.600 211.300 138.407 C 213.665 136.101,215.600 134.166,215.600 134.107 C 215.600 133.818,215.087 134.306,211.193 138.300 M331.244 135.700 C 331.341 135.755,332.676 136.970,334.210 138.400 L 337.000 141.000 334.412 138.300 C 332.988 136.815,331.653 135.600,331.445 135.600 C 331.237 135.600,331.146 135.645,331.244 135.700 M338.400 143.000 C 339.146 143.770,339.847 144.400,339.957 144.400 C 340.067 144.400,339.546 143.770,338.800 143.000 C 338.054 142.230,337.353 141.600,337.243 141.600 C 337.133 141.600,337.654 142.230,338.400 143.000 M169.142 144.700 C 167.981 145.988,163.914 151.588,163.041 153.100 C 162.883 153.375,162.906 153.600,163.092 153.600 C 163.279 153.600,163.958 152.700,164.600 151.600 C 165.242 150.500,165.898 149.600,166.057 149.600 C 166.216 149.600,166.447 149.281,166.571 148.891 C 166.695 148.502,167.292 147.624,167.898 146.942 C 169.312 145.349,170.174 144.289,170.549 143.683 C 171.127 142.748,170.478 143.217,169.142 144.700 M195.900 145.287 C 195.235 146.119,194.997 146.800,195.373 146.800 C 195.468 146.800,195.930 146.260,196.400 145.600 C 197.378 144.226,196.958 143.963,195.900 145.287 M203.200 147.200 C 202.503 148.080,202.023 148.800,202.133 148.800 C 202.243 148.800,202.903 148.080,203.600 147.200 C 204.297 146.320,204.777 145.600,204.667 145.600 C 204.557 145.600,203.897 146.320,203.200 147.200 M343.455 149.500 C 345.878 152.882,346.329 153.425,345.689 152.191 C 345.134 151.120,341.653 146.400,341.418 146.400 C 341.317 146.400,342.234 147.795,343.455 149.500 M194.400 147.629 C 194.400 147.864,194.130 148.327,193.800 148.657 C 193.470 148.987,193.206 149.469,193.213 149.729 C 193.226 150.206,194.139 149.182,194.843 147.900 C 195.098 147.436,195.088 147.200,194.814 147.200 C 194.586 147.200,194.400 147.393,194.400 147.629 M200.950 150.300 C 199.767 151.925,199.402 152.752,200.377 151.600 C 201.278 150.534,202.119 149.200,201.889 149.200 C 201.813 149.200,201.390 149.695,200.950 150.300 M191.883 151.859 C 190.930 153.772,191.274 154.018,192.350 152.194 C 193.280 150.619,193.349 150.395,192.900 150.410 C 192.735 150.415,192.277 151.068,191.883 151.859 M162.169 154.473 C 161.998 154.763,161.599 155.405,161.283 155.900 C 160.909 156.485,160.864 156.800,161.154 156.800 C 161.399 156.800,161.600 156.530,161.600 156.200 C 161.600 155.870,161.761 155.600,161.957 155.600 C 162.352 155.600,162.918 154.385,162.649 154.116 C 162.556 154.023,162.340 154.184,162.169 154.473 M189.875 155.647 C 188.965 157.747,189.317 158.206,190.255 156.143 C 190.642 155.294,191.027 154.465,191.112 154.300 C 191.197 154.135,191.114 154.000,190.928 154.000 C 190.741 154.000,190.268 154.741,189.875 155.647 M158.625 160.750 C 156.645 164.693,156.607 164.800,157.200 164.800 C 157.420 164.800,157.600 164.603,157.600 164.363 C 157.600 164.122,158.328 162.481,159.219 160.715 C 160.109 158.949,160.750 157.417,160.644 157.310 C 160.537 157.204,159.629 158.752,158.625 160.750 M188.028 159.739 C 187.572 160.738,187.210 161.791,187.223 162.078 C 187.236 162.365,187.688 161.627,188.228 160.438 C 188.768 159.249,189.130 158.196,189.032 158.099 C 188.935 158.002,188.483 158.740,188.028 159.739 M186.400 163.920 C 186.400 164.316,186.239 164.811,186.042 165.020 C 185.666 165.419,184.953 168.346,185.317 168.000 C 185.795 167.545,187.110 163.200,186.770 163.200 C 186.566 163.200,186.400 163.524,186.400 163.920 M155.779 167.034 C 155.350 168.113,154.940 169.132,154.867 169.298 C 154.793 169.464,154.928 169.600,155.167 169.600 C 155.405 169.600,155.600 169.358,155.600 169.061 C 155.600 168.765,155.884 167.953,156.232 167.257 C 156.579 166.560,156.795 165.784,156.710 165.531 C 156.626 165.279,156.207 165.955,155.779 167.034 M191.244 168.444 C 190.998 169.151,190.866 169.800,190.952 169.885 C 191.038 169.971,191.309 169.462,191.556 168.756 C 191.802 168.049,191.934 167.400,191.848 167.315 C 191.762 167.229,191.491 167.738,191.244 168.444 M184.692 168.642 C 184.531 168.802,184.411 169.398,184.425 169.967 L 184.451 171.000 184.837 170.034 C 185.253 168.994,185.167 168.167,184.692 168.642 M354.218 169.700 C 354.368 170.195,354.655 170.776,354.856 170.991 C 355.057 171.206,355.019 170.801,354.772 170.091 C 354.265 168.638,353.797 168.308,354.218 169.700 M154.222 170.900 C 154.137 171.175,153.783 172.287,153.434 173.371 C 152.684 175.702,152.695 175.600,153.200 175.600 C 153.420 175.600,153.600 175.186,153.600 174.680 C 153.600 174.174,153.761 173.589,153.958 173.380 C 154.399 172.912,154.956 170.400,154.619 170.400 C 154.485 170.400,154.306 170.625,154.222 170.900 M183.600 171.950 C 183.600 172.363,183.505 173.308,183.389 174.050 C 183.236 175.034,183.274 175.183,183.529 174.600 C 184.129 173.230,184.404 171.200,183.990 171.200 C 183.775 171.200,183.600 171.538,183.600 171.950 M151.639 179.944 C 151.153 182.004,150.851 183.785,150.968 183.902 C 151.217 184.150,151.462 183.480,151.738 181.800 C 151.846 181.140,152.136 179.810,152.382 178.844 C 152.628 177.878,152.760 176.888,152.676 176.644 C 152.592 176.400,152.125 177.885,151.639 179.944 M182.440 177.900 C 182.475 179.239,182.514 179.292,182.800 178.400 C 183.258 176.970,183.258 176.400,182.800 176.400 C 182.580 176.400,182.418 177.075,182.440 177.900 M357.256 179.600 C 357.256 179.930,357.411 180.560,357.600 181.000 C 357.817 181.504,357.944 181.578,357.944 181.200 C 357.944 180.870,357.789 180.240,357.600 179.800 C 357.383 179.296,357.256 179.222,357.256 179.600 M181.869 180.270 C 181.557 181.383,181.093 186.628,181.326 186.400 C 181.604 186.129,182.453 179.919,182.241 179.708 C 182.149 179.615,181.981 179.868,181.869 180.270 M358.493 185.200 C 358.493 185.970,358.575 186.285,358.676 185.900 C 358.776 185.515,358.776 184.885,358.676 184.500 C 358.575 184.115,358.493 184.430,358.493 185.200 M150.267 186.500 C 149.801 189.224,149.563 194.196,149.927 193.600 C 150.276 193.027,150.935 185.200,150.634 185.200 C 150.554 185.200,150.389 185.785,150.267 186.500 M186.218 187.818 C 186.065 188.839,186.022 189.755,186.122 189.855 C 186.222 189.955,186.429 189.202,186.582 188.182 C 186.735 187.161,186.778 186.245,186.678 186.145 C 186.578 186.045,186.371 186.798,186.218 187.818 M180.400 193.867 C 180.400 196.433,180.465 198.458,180.545 198.367 C 180.897 197.963,181.114 189.200,180.772 189.200 C 180.564 189.200,180.400 191.255,180.400 193.867 M359.301 191.800 C 359.305 192.680,359.387 192.993,359.483 192.495 C 359.579 191.998,359.575 191.278,359.475 190.895 C 359.375 190.513,359.296 190.920,359.301 191.800 M185.714 194.200 C 185.717 195.300,185.795 195.703,185.887 195.095 C 185.979 194.486,185.977 193.586,185.882 193.095 C 185.787 192.603,185.711 193.100,185.714 194.200 M359.728 196.000 C 359.728 197.430,359.801 198.015,359.889 197.300 C 359.978 196.585,359.978 195.415,359.889 194.700 C 359.801 193.985,359.728 194.570,359.728 196.000 M149.348 200.000 C 149.348 202.310,149.414 203.255,149.495 202.100 C 149.576 200.945,149.576 199.055,149.495 197.900 C 149.414 196.745,149.348 197.690,149.348 200.000 M359.734 203.600 C 359.734 205.250,359.805 205.925,359.891 205.100 C 359.978 204.275,359.978 202.925,359.891 202.100 C 359.805 201.275,359.734 201.950,359.734 203.600 M185.714 205.800 C 185.717 206.900,185.795 207.303,185.887 206.695 C 185.979 206.086,185.977 205.186,185.882 204.695 C 185.787 204.203,185.711 204.700,185.714 205.800 M180.400 208.310 C 180.400 210.313,180.569 212.057,180.775 212.184 C 181.121 212.398,180.898 205.238,180.545 204.833 C 180.465 204.742,180.400 206.306,180.400 208.310 M149.840 209.369 C 150.219 214.451,150.770 215.793,150.510 211.000 C 150.391 208.800,150.131 206.730,149.934 206.400 C 149.716 206.036,149.679 207.206,149.840 209.369 M359.301 208.200 C 359.305 209.080,359.387 209.393,359.483 208.895 C 359.579 208.398,359.575 207.678,359.475 207.295 C 359.375 206.913,359.296 207.320,359.301 208.200 M186.095 210.800 C 186.095 211.350,186.232 212.340,186.400 213.000 C 186.672 214.070,186.705 214.092,186.705 213.200 C 186.705 212.650,186.568 211.660,186.400 211.000 C 186.128 209.930,186.095 209.908,186.095 210.800 M358.493 214.800 C 358.493 215.570,358.575 215.885,358.676 215.500 C 358.776 215.115,358.776 214.485,358.676 214.100 C 358.575 213.715,358.493 214.030,358.493 214.800 M181.449 216.800 C 181.577 218.230,181.844 219.573,182.044 219.784 C 182.447 220.209,182.079 216.838,181.544 215.200 C 181.347 214.599,181.309 215.236,181.449 216.800 M150.800 216.227 C 150.800 217.080,152.549 223.726,152.676 223.356 C 152.760 223.112,152.624 222.122,152.374 221.156 C 152.124 220.190,151.828 218.724,151.717 217.897 C 151.551 216.660,150.800 215.292,150.800 216.227 M357.429 219.429 C 357.281 220.015,357.238 220.572,357.332 220.666 C 357.427 220.760,357.624 220.358,357.771 219.771 C 357.919 219.185,357.962 218.628,357.868 218.534 C 357.773 218.440,357.576 218.842,357.429 219.429 M182.400 221.533 C 182.400 222.230,182.583 222.800,182.808 222.800 C 183.050 222.800,183.108 222.353,182.951 221.700 C 182.575 220.130,182.400 220.077,182.400 221.533 M183.408 225.400 C 183.548 226.280,183.832 227.174,184.039 227.388 C 184.503 227.866,184.054 225.267,183.522 224.400 C 183.282 224.008,183.242 224.356,183.408 225.400 M152.929 224.958 C 153.047 225.265,153.366 226.300,153.639 227.258 C 154.269 229.470,154.992 230.328,154.600 228.400 C 154.444 227.630,154.155 226.829,153.958 226.620 C 153.761 226.411,153.600 225.826,153.600 225.320 C 153.600 224.814,153.401 224.400,153.157 224.400 C 152.914 224.400,152.811 224.651,152.929 224.958 M184.406 228.676 C 184.403 229.158,184.580 229.664,184.800 229.800 C 185.309 230.115,185.309 229.188,184.800 228.400 C 184.485 227.912,184.411 227.964,184.406 228.676 M354.379 229.855 C 354.158 230.436,354.052 230.985,354.143 231.076 C 354.233 231.167,354.499 230.692,354.733 230.020 C 355.253 228.528,354.939 228.382,354.379 229.855 M154.800 230.549 C 154.800 231.065,156.758 234.884,156.774 234.400 C 156.786 234.070,156.526 233.284,156.198 232.654 C 155.869 232.024,155.600 231.259,155.600 230.954 C 155.600 230.649,155.420 230.400,155.200 230.400 C 154.980 230.400,154.800 230.467,154.800 230.549 M185.456 231.587 C 185.591 232.350,185.844 233.250,186.017 233.587 C 186.191 233.924,186.594 234.830,186.913 235.600 C 188.326 239.011,188.610 239.600,188.837 239.600 C 188.970 239.600,188.299 237.665,187.345 235.300 C 185.194 229.967,185.154 229.888,185.456 231.587 M191.267 231.620 C 191.501 232.292,191.767 232.767,191.857 232.676 C 192.056 232.478,191.301 230.400,191.031 230.400 C 190.927 230.400,191.033 230.949,191.267 231.620 M156.800 235.408 C 156.800 235.912,160.470 242.864,160.644 242.690 C 160.750 242.583,160.109 241.051,159.219 239.285 C 158.328 237.519,157.600 235.878,157.600 235.637 C 157.600 235.397,157.420 235.200,157.200 235.200 C 156.980 235.200,156.800 235.294,156.800 235.408 M189.200 240.131 C 189.200 240.723,190.612 243.600,190.902 243.600 C 191.075 243.600,190.830 242.835,190.359 241.900 C 189.442 240.081,189.200 239.712,189.200 240.131 M161.157 243.900 C 161.861 245.182,162.774 246.206,162.787 245.729 C 162.794 245.469,162.530 244.987,162.200 244.657 C 161.870 244.327,161.600 243.864,161.600 243.629 C 161.600 243.393,161.414 243.200,161.186 243.200 C 160.912 243.200,160.902 243.436,161.157 243.900 M191.404 244.744 C 191.706 245.770,196.204 253.061,197.068 253.925 C 197.361 254.218,197.600 254.590,197.600 254.753 C 197.600 254.916,197.916 255.398,198.303 255.825 C 198.690 256.251,199.324 257.095,199.712 257.700 C 200.101 258.305,200.592 258.800,200.804 258.800 C 201.016 258.800,200.022 257.203,198.595 255.252 C 197.168 253.301,194.904 249.926,193.563 247.752 C 192.223 245.578,191.252 244.225,191.404 244.744 M346.839 245.424 C 346.377 246.207,346.180 246.736,346.402 246.599 C 346.836 246.331,348.134 244.000,347.850 244.000 C 347.756 244.000,347.301 244.641,346.839 245.424 M163.041 246.900 C 166.767 253.354,182.366 270.167,183.540 268.993 C 183.750 268.784,182.036 267.200,181.600 267.200 C 181.216 267.200,170.785 256.741,169.800 255.368 C 169.360 254.755,168.504 253.705,167.898 253.035 C 167.292 252.365,166.695 251.498,166.571 251.109 C 166.447 250.719,166.216 250.400,166.057 250.400 C 165.898 250.400,165.242 249.500,164.600 248.400 C 163.958 247.300,163.279 246.400,163.092 246.400 C 162.906 246.400,162.883 246.625,163.041 246.900 M345.353 247.700 C 343.976 250.036,343.886 250.235,344.587 249.400 C 345.400 248.432,346.100 247.200,345.838 247.200 C 345.733 247.200,345.515 247.425,345.353 247.700 M199.962 248.200 C 200.190 248.640,200.754 249.450,201.215 250.000 C 201.787 250.682,201.922 250.746,201.638 250.200 C 201.410 249.760,200.846 248.950,200.385 248.400 C 199.813 247.718,199.678 247.654,199.962 248.200 M342.400 252.000 C 341.703 252.880,341.223 253.600,341.333 253.600 C 341.443 253.600,342.103 252.880,342.800 252.000 C 343.497 251.120,343.977 250.400,343.867 250.400 C 343.757 250.400,343.097 251.120,342.400 252.000 M203.200 252.800 C 203.897 253.680,204.557 254.400,204.667 254.400 C 204.777 254.400,204.297 253.680,203.600 252.800 C 202.903 251.920,202.243 251.200,202.133 251.200 C 202.023 251.200,202.503 251.920,203.200 252.800 M338.378 257.100 L 337.000 258.600 338.500 257.222 C 339.896 255.938,340.184 255.600,339.878 255.600 C 339.812 255.600,339.137 256.275,338.378 257.100 M211.193 261.700 C 215.087 265.694,215.600 266.182,215.600 265.893 C 215.600 265.834,213.665 263.899,211.300 261.593 L 207.000 257.400 211.193 261.700 M201.809 260.200 C 202.609 261.497,206.754 265.787,206.975 265.546 C 207.050 265.466,205.751 263.960,204.089 262.200 C 202.428 260.440,201.402 259.540,201.809 260.200 M333.944 261.807 C 332.483 263.233,331.408 264.400,331.555 264.400 C 331.703 264.400,332.983 263.230,334.400 261.800 C 335.817 260.370,336.892 259.203,336.788 259.207 C 336.685 259.211,335.405 260.381,333.944 261.807 M329.375 266.100 L 328.200 267.400 329.500 266.225 C 330.215 265.579,330.800 264.994,330.800 264.925 C 330.800 264.616,330.470 264.888,329.375 266.100 M208.400 266.996 C 208.400 267.468,214.048 272.800,214.548 272.800 C 214.785 272.800,214.623 272.471,214.189 272.069 C 213.755 271.666,212.275 270.289,210.900 269.008 C 209.525 267.727,208.400 266.821,208.400 266.996 M184.004 269.500 C 184.014 270.341,194.977 276.910,200.717 279.514 C 204.818 281.374,204.800 281.368,204.800 280.800 C 204.800 280.580,204.528 280.400,204.195 280.400 C 203.862 280.400,203.277 280.233,202.895 280.028 C 202.513 279.824,200.580 278.881,198.600 277.933 C 196.620 276.985,194.940 276.072,194.867 275.905 C 194.793 275.737,194.523 275.600,194.266 275.600 C 194.009 275.600,192.286 274.610,190.436 273.400 C 188.586 272.190,187.004 271.200,186.919 271.200 C 186.834 271.200,186.280 270.750,185.687 270.200 C 184.603 269.195,183.997 268.943,184.004 269.500 M220.144 269.509 C 220.460 270.021,222.800 271.753,222.800 271.475 C 222.800 271.376,222.139 270.791,221.332 270.175 C 220.524 269.559,219.989 269.259,220.144 269.509 M318.900 273.646 C 317.537 274.519,317.095 275.106,318.300 274.443 C 319.218 273.939,320.656 272.827,320.400 272.819 C 320.290 272.816,319.615 273.188,318.900 273.646 M216.036 274.113 C 218.677 276.375,220.000 277.224,220.000 276.658 C 220.000 276.579,219.003 275.769,217.784 274.858 C 215.440 273.105,214.285 272.613,216.036 274.113 M220.400 277.111 C 220.400 277.285,220.985 277.768,221.700 278.184 C 222.415 278.599,223.090 279.043,223.200 279.170 C 223.310 279.296,223.760 279.596,224.200 279.837 C 224.640 280.077,226.051 280.856,227.335 281.568 C 228.619 282.280,229.762 282.771,229.874 282.659 C 229.986 282.547,229.298 282.058,228.345 281.572 C 227.393 281.086,225.215 279.812,223.507 278.742 C 221.798 277.671,220.400 276.937,220.400 277.111 M205.200 281.322 C 205.200 281.424,206.065 281.791,207.122 282.137 C 208.179 282.482,209.349 282.882,209.722 283.025 C 210.108 283.173,210.400 283.095,210.400 282.843 C 210.400 282.599,209.986 282.400,209.480 282.400 C 208.974 282.400,208.389 282.239,208.180 282.042 C 207.759 281.646,205.200 281.028,205.200 281.322 M230.400 283.200 C 230.400 283.420,230.676 283.600,231.014 283.600 C 231.352 283.600,232.066 283.887,232.601 284.238 C 233.136 284.588,233.805 284.797,234.087 284.702 C 234.369 284.607,233.722 284.141,232.649 283.665 C 230.403 282.669,230.400 282.668,230.400 283.200 M211.600 283.518 C 212.533 284.096,214.800 284.430,214.800 283.990 C 214.800 283.776,214.553 283.600,214.250 283.600 C 213.947 283.600,213.093 283.498,212.350 283.373 C 211.431 283.219,211.192 283.265,211.600 283.518 M216.000 284.800 C 217.436 285.260,218.084 285.260,217.800 284.800 C 217.664 284.580,216.978 284.418,216.276 284.440 C 215.057 284.478,215.045 284.494,216.000 284.800 M292.400 284.818 C 291.962 285.115,292.124 285.152,293.000 284.956 C 294.471 284.627,294.790 284.398,293.767 284.406 C 293.345 284.409,292.730 284.595,292.400 284.818 M235.200 285.142 C 235.200 285.323,235.926 285.712,236.813 286.004 C 237.909 286.366,238.262 286.641,237.913 286.862 C 237.607 287.056,238.127 287.180,239.200 287.169 C 240.544 287.154,240.797 287.065,240.200 286.816 C 236.720 285.368,235.200 284.859,235.200 285.142 M219.800 285.562 C 221.057 286.072,225.864 286.515,225.400 286.078 C 225.180 285.871,223.650 285.598,222.000 285.470 C 220.331 285.341,219.355 285.382,219.800 285.562 M288.600 285.600 C 287.581 286.038,288.632 286.038,290.000 285.600 C 290.804 285.343,290.843 285.277,290.200 285.268 C 289.760 285.262,289.040 285.411,288.600 285.600 M228.400 286.817 C 231.528 287.249,235.620 287.238,234.600 286.800 C 234.160 286.611,232.090 286.469,230.000 286.484 C 226.541 286.510,226.398 286.540,228.400 286.817 M261.900 286.682 C 262.395 286.778,263.205 286.778,263.700 286.682 C 264.195 286.587,263.790 286.509,262.800 286.509 C 261.810 286.509,261.405 286.587,261.900 286.682 M281.500 286.682 C 281.995 286.778,282.805 286.778,283.300 286.682 C 283.795 286.587,283.390 286.509,282.400 286.509 C 281.410 286.509,281.005 286.587,281.500 286.682 M265.700 287.076 C 266.085 287.176,266.715 287.176,267.100 287.076 C 267.485 286.975,267.170 286.893,266.400 286.893 C 265.630 286.893,265.315 286.975,265.700 287.076 M278.500 287.076 C 278.885 287.176,279.515 287.176,279.900 287.076 C 280.285 286.975,279.970 286.893,279.200 286.893 C 278.430 286.893,278.115 286.975,278.500 287.076 " stroke="none" fill="#fce4c3" fill-rule="evenodd"></path><path id="path3" d="M0.000 200.000 L 0.000 400.000 200.000 400.000 L 400.000 400.000 400.000 200.000 L 400.000 0.000 200.000 0.000 L 0.000 0.000 0.000 200.000 M166.305 112.733 C 166.642 112.947,166.113 113.361,164.705 113.984 C 137.697 125.936,121.154 143.278,113.181 168.000 C 107.565 185.413,106.664 206.964,110.892 222.800 C 111.332 224.450,111.777 226.160,111.880 226.600 C 111.983 227.040,112.207 227.760,112.378 228.200 C 112.549 228.640,112.915 229.720,113.191 230.600 C 113.466 231.480,113.960 232.830,114.287 233.600 C 114.614 234.370,115.027 235.360,115.205 235.800 C 121.673 251.786,134.817 267.780,149.528 277.564 C 152.753 279.709,163.366 285.200,164.286 285.200 C 165.383 285.200,168.811 286.947,168.322 287.256 C 167.587 287.723,160.286 287.679,155.677 287.181 C 124.279 283.783,98.073 265.382,84.781 237.400 C 59.908 185.034,92.212 123.354,149.600 113.637 C 156.048 112.546,165.227 112.049,166.305 112.733 M202.605 112.808 C 202.744 113.033,202.170 113.494,201.329 113.833 C 197.553 115.354,187.936 120.330,185.737 121.900 C 185.044 122.395,184.294 122.800,184.072 122.800 C 183.849 122.800,183.607 122.935,183.533 123.100 C 183.460 123.265,182.230 124.197,180.800 125.172 C 175.695 128.651,168.250 135.386,164.852 139.600 C 164.053 140.590,163.305 141.490,163.190 141.600 C 160.620 144.046,151.600 159.710,151.600 161.727 C 151.600 162.009,151.456 162.411,151.281 162.620 C 151.105 162.829,150.640 163.990,150.247 165.200 C 149.854 166.410,149.387 167.760,149.210 168.200 C 148.693 169.486,147.193 175.376,146.409 179.200 C 144.527 188.377,143.830 208.083,145.176 214.069 C 145.390 215.021,145.851 217.330,146.201 219.200 C 146.550 221.070,146.988 223.050,147.173 223.600 C 147.358 224.150,147.832 225.770,148.225 227.200 C 148.619 228.630,149.064 229.980,149.215 230.200 C 149.366 230.420,149.613 231.115,149.764 231.744 C 150.475 234.718,155.938 245.574,159.272 250.642 C 166.597 261.774,175.248 270.574,185.537 277.358 C 191.423 281.239,194.653 282.848,202.929 286.023 C 204.535 286.639,205.094 287.021,204.729 287.252 C 203.972 287.732,193.585 287.679,190.446 287.178 C 182.898 285.975,180.089 285.485,179.000 285.181 C 175.393 284.176,167.347 281.479,167.020 281.165 C 166.811 280.964,166.395 280.800,166.096 280.800 C 165.093 280.800,158.643 277.466,153.800 274.443 C 138.003 264.585,126.823 251.510,118.878 233.600 C 111.701 217.423,110.292 194.882,115.326 176.800 C 120.293 158.958,130.778 143.116,145.304 131.506 C 151.219 126.779,164.024 119.200,166.096 119.200 C 166.395 119.200,166.811 119.045,167.020 118.855 C 168.635 117.387,181.387 114.003,188.368 113.190 C 190.220 112.974,191.825 112.708,191.935 112.599 C 192.330 112.204,202.353 112.400,202.605 112.808 M239.400 112.801 C 239.537 113.021,239.232 113.360,238.724 113.554 C 238.216 113.748,236.392 114.558,234.671 115.353 C 232.950 116.149,231.390 116.800,231.204 116.800 C 231.019 116.800,230.807 116.935,230.733 117.100 C 230.660 117.265,229.790 117.809,228.800 118.309 C 225.983 119.731,223.907 120.922,222.537 121.900 C 221.844 122.395,221.167 122.800,221.032 122.800 C 220.458 122.800,213.083 128.367,209.640 131.400 C 200.552 139.405,191.524 152.343,188.009 162.400 C 187.739 163.170,187.373 164.160,187.194 164.600 C 187.014 165.040,186.558 166.390,186.179 167.600 C 185.801 168.810,185.349 170.160,185.176 170.600 C 185.003 171.040,184.569 172.750,184.211 174.400 C 183.854 176.050,183.406 178.030,183.217 178.800 C 179.837 192.539,180.842 217.828,185.181 228.200 C 185.365 228.640,185.821 229.900,186.195 231.000 C 186.568 232.100,187.307 233.950,187.837 235.111 C 188.367 236.272,188.800 237.345,188.800 237.495 C 188.800 238.756,195.268 249.899,198.945 254.972 C 207.280 266.471,219.142 276.604,231.066 282.413 C 233.308 283.506,235.396 284.400,235.705 284.400 C 236.014 284.400,236.388 284.522,236.537 284.671 C 236.686 284.819,237.900 285.320,239.235 285.782 C 243.096 287.120,242.254 287.403,234.499 287.370 C 226.745 287.338,221.295 286.713,215.600 285.203 C 212.810 284.463,207.364 282.761,205.800 282.140 C 204.920 281.790,203.840 281.364,203.400 281.192 C 187.333 274.928,171.676 261.642,161.926 246.000 C 159.271 241.740,155.200 233.692,155.200 232.702 C 155.200 232.404,155.045 231.989,154.856 231.780 C 154.667 231.571,154.192 230.410,153.801 229.200 C 153.410 227.990,152.958 226.640,152.795 226.200 C 152.093 224.300,151.200 220.861,151.200 220.059 C 151.200 219.581,151.030 218.877,150.823 218.495 C 148.521 214.249,148.521 185.751,150.823 181.505 C 151.030 181.123,151.200 180.419,151.200 179.941 C 151.200 179.139,152.093 175.700,152.795 173.800 C 152.958 173.360,153.410 172.010,153.801 170.800 C 154.192 169.590,154.667 168.429,154.856 168.220 C 155.045 168.011,155.200 167.596,155.200 167.298 C 155.200 165.865,162.412 152.529,164.880 149.400 C 165.053 149.180,166.389 147.470,167.848 145.600 C 176.322 134.742,190.943 123.575,202.400 119.213 C 203.170 118.920,204.430 118.429,205.200 118.122 C 210.953 115.829,221.113 113.231,224.561 113.172 C 225.462 113.156,226.560 112.989,227.000 112.800 C 228.145 112.308,239.096 112.309,239.400 112.801 M285.400 113.126 C 288.342 113.519,289.708 113.800,293.600 114.816 C 294.370 115.017,296.170 115.484,297.600 115.853 C 299.030 116.223,300.380 116.652,300.600 116.807 C 300.820 116.963,301.515 117.213,302.144 117.364 C 305.550 118.179,320.297 125.705,320.733 126.850 C 320.807 127.043,321.027 127.200,321.224 127.200 C 322.844 127.200,335.520 138.407,340.226 144.000 C 343.262 147.608,348.800 155.817,348.800 156.710 C 348.800 156.943,348.935 157.193,349.101 157.267 C 349.561 157.470,352.800 163.874,352.800 164.580 C 352.800 164.921,352.980 165.200,353.200 165.200 C 353.420 165.200,353.600 165.464,353.600 165.786 C 353.600 166.109,353.895 167.054,354.255 167.886 C 355.768 171.379,356.800 174.481,356.800 175.534 C 356.800 175.922,356.947 176.411,357.127 176.620 C 357.515 177.071,358.311 180.243,358.849 183.480 C 360.012 190.489,360.174 192.498,360.174 200.000 C 360.174 207.502,360.012 209.511,358.849 216.520 C 358.311 219.757,357.515 222.929,357.127 223.380 C 356.947 223.589,356.800 224.078,356.800 224.466 C 356.800 225.519,355.768 228.621,354.255 232.114 C 353.895 232.946,353.600 233.891,353.600 234.214 C 353.600 234.536,353.420 234.800,353.200 234.800 C 352.980 234.800,352.800 235.079,352.800 235.420 C 352.800 236.126,349.561 242.530,349.101 242.733 C 348.935 242.807,348.800 243.057,348.800 243.290 C 348.800 244.183,343.262 252.392,340.226 256.000 C 335.520 261.593,322.844 272.800,321.224 272.800 C 321.027 272.800,320.807 272.957,320.733 273.150 C 320.297 274.295,305.550 281.821,302.144 282.636 C 301.515 282.787,300.820 283.037,300.600 283.193 C 300.380 283.348,299.030 283.777,297.600 284.147 C 296.170 284.516,294.370 284.983,293.600 285.184 C 289.718 286.197,288.343 286.482,285.400 286.880 C 281.930 287.351,264.526 287.470,261.600 287.043 C 256.737 286.335,252.161 285.444,251.820 285.139 C 251.611 284.953,251.058 284.800,250.591 284.800 C 249.800 284.800,246.829 283.955,245.000 283.210 C 244.560 283.031,243.300 282.579,242.200 282.205 C 241.100 281.831,239.570 281.249,238.800 280.913 C 235.971 279.676,231.394 277.461,231.200 277.234 C 231.090 277.105,230.280 276.644,229.400 276.210 C 227.353 275.199,224.639 273.488,224.467 273.100 C 224.393 272.935,224.156 272.800,223.940 272.800 C 223.382 272.800,219.379 269.765,215.237 266.200 C 212.512 263.855,207.329 258.563,205.379 256.137 C 204.291 254.782,202.990 253.162,202.490 252.537 C 199.788 249.162,193.200 237.846,193.200 236.578 C 193.200 236.260,193.056 236.000,192.879 236.000 C 192.702 236.000,192.226 235.055,191.820 233.900 C 191.414 232.745,190.961 231.620,190.814 231.400 C 190.667 231.180,190.218 229.920,189.817 228.600 C 189.416 227.280,188.958 225.840,188.799 225.400 C 187.726 222.425,187.491 221.440,186.366 215.200 C 185.421 209.960,185.226 207.356,185.226 200.000 C 185.226 192.644,185.421 190.040,186.366 184.800 C 187.491 178.560,187.726 177.575,188.799 174.600 C 188.958 174.160,189.416 172.720,189.817 171.400 C 190.218 170.080,190.667 168.820,190.814 168.600 C 190.961 168.380,191.414 167.255,191.820 166.100 C 192.226 164.945,192.702 164.000,192.879 164.000 C 193.056 164.000,193.200 163.740,193.200 163.422 C 193.200 162.225,198.583 152.812,201.561 148.800 C 202.132 148.031,202.730 147.221,202.890 147.000 C 205.483 143.417,211.346 137.149,215.237 133.800 C 219.379 130.235,223.382 127.200,223.940 127.200 C 224.156 127.200,224.393 127.065,224.467 126.900 C 224.639 126.512,227.353 124.801,229.400 123.790 C 230.280 123.356,231.090 122.895,231.200 122.766 C 231.394 122.539,235.971 120.324,238.800 119.087 C 239.570 118.751,241.100 118.169,242.200 117.795 C 243.300 117.421,244.560 116.969,245.000 116.790 C 246.727 116.086,249.780 115.200,250.477 115.200 C 250.880 115.200,251.523 115.031,251.905 114.824 C 252.893 114.288,258.899 113.201,260.908 113.194 C 261.839 113.191,262.870 113.010,263.200 112.792 C 263.967 112.286,281.027 112.543,285.400 113.126 M128.200 113.899 C 102.185 125.408,85.174 143.068,77.434 166.600 C 75.362 172.902,75.361 172.903,74.248 178.400 C 68.689 205.834,73.134 229.982,87.795 251.992 C 98.277 267.728,111.695 278.759,128.742 285.655 L 132.600 287.216 125.200 287.030 C 88.449 286.105,56.571 262.343,44.938 227.200 C 41.706 217.435,40.997 212.449,41.015 199.600 C 41.030 188.806,41.102 188.068,42.957 179.600 C 43.581 176.754,45.694 170.137,46.617 168.140 C 46.938 167.446,47.200 166.748,47.200 166.588 C 47.200 166.428,48.043 164.565,49.073 162.448 C 62.014 135.852,86.751 117.697,115.600 113.622 C 120.357 112.950,120.739 112.922,125.800 112.878 L 130.600 112.837 128.200 113.899 " stroke="none" fill="#f4c464" fill-rule="evenodd"></path><path id="path4" d="M155.000 112.869 C 150.138 113.409,147.819 114.009,151.600 113.748 C 153.250 113.635,155.680 113.376,157.000 113.174 C 158.320 112.972,160.930 112.811,162.800 112.816 L 166.200 112.826 164.200 113.683 C 158.126 116.286,146.451 122.885,143.026 125.651 C 130.652 135.643,123.992 143.358,118.414 154.160 C 115.465 159.869,111.763 169.490,112.112 170.536 C 112.190 170.771,112.562 169.982,112.939 168.782 C 120.834 143.615,137.420 126.058,164.705 113.984 C 168.205 112.436,163.631 111.910,155.000 112.869 M191.000 112.769 C 190.340 112.919,192.680 112.980,196.200 112.904 C 202.045 112.777,202.513 112.817,201.600 113.368 C 200.470 114.050,200.831 114.225,202.037 113.580 C 202.469 113.349,202.717 112.989,202.588 112.780 C 202.323 112.352,192.865 112.343,191.000 112.769 M227.000 112.773 C 226.253 113.069,233.727 112.899,234.600 112.600 C 234.820 112.525,233.380 112.462,231.400 112.460 C 229.420 112.458,227.440 112.599,227.000 112.773 M238.365 112.671 C 239.133 112.831,239.214 112.953,238.765 113.267 C 238.347 113.558,238.338 113.624,238.730 113.520 C 239.661 113.274,239.436 112.602,238.400 112.534 L 237.400 112.469 238.365 112.671 M263.266 112.751 C 262.954 112.949,263.618 113.016,264.866 112.913 C 267.797 112.671,268.195 112.468,265.800 112.438 C 264.700 112.424,263.560 112.565,263.266 112.751 M278.033 112.545 C 278.125 112.624,279.277 112.796,280.592 112.925 C 282.146 113.079,282.777 113.030,282.392 112.787 C 281.851 112.444,277.649 112.211,278.033 112.545 M119.800 113.059 C 91.154 116.380,68.030 130.815,53.497 154.450 C 51.167 158.239,47.200 165.886,47.200 166.588 C 47.200 166.748,46.938 167.446,46.617 168.140 C 45.694 170.137,43.581 176.754,42.957 179.600 C 41.102 188.068,41.030 188.806,41.015 199.600 C 40.997 212.449,41.706 217.435,44.938 227.200 C 56.571 262.343,88.449 286.105,125.200 287.030 L 132.600 287.216 128.742 285.655 C 94.871 271.954,72.000 237.928,72.000 201.238 C 72.000 192.013,73.665 178.670,75.624 172.200 C 78.291 163.392,80.454 158.061,83.741 152.200 C 93.016 135.660,107.800 122.924,128.200 113.899 L 130.600 112.837 125.800 112.878 C 123.160 112.901,120.460 112.982,119.800 113.059 M185.000 113.620 C 184.461 113.865,184.854 113.905,186.200 113.741 C 187.300 113.607,188.275 113.431,188.367 113.349 C 188.717 113.036,185.761 113.274,185.000 113.620 M221.000 113.600 C 219.930 113.872,219.908 113.905,220.800 113.905 C 221.350 113.905,222.340 113.768,223.000 113.600 C 224.070 113.328,224.092 113.295,223.200 113.295 C 222.650 113.295,221.660 113.432,221.000 113.600 M286.600 113.590 C 287.364 113.928,289.914 114.157,289.567 113.856 C 289.475 113.776,288.590 113.604,287.600 113.473 C 286.398 113.314,286.066 113.353,286.600 113.590 M144.200 114.642 C 140.477 115.549,133.944 117.677,134.175 117.908 C 134.289 118.022,135.151 117.840,136.091 117.504 C 137.031 117.168,138.880 116.596,140.200 116.233 C 141.520 115.871,143.153 115.400,143.828 115.187 C 144.504 114.974,145.494 114.787,146.028 114.772 C 146.563 114.756,147.360 114.589,147.800 114.400 C 149.150 113.820,146.977 113.966,144.200 114.642 M179.200 114.806 C 178.778 115.082,179.015 115.123,180.000 114.942 C 181.725 114.625,182.051 114.398,180.767 114.406 C 180.235 114.409,179.530 114.589,179.200 114.806 M215.600 114.818 C 215.162 115.115,215.324 115.152,216.200 114.956 C 217.671 114.627,217.990 114.398,216.967 114.406 C 216.545 114.409,215.930 114.595,215.600 114.818 M176.200 115.600 C 175.696 115.817,175.622 115.944,176.000 115.944 C 176.330 115.944,176.960 115.789,177.400 115.600 C 177.904 115.383,177.978 115.256,177.600 115.256 C 177.270 115.256,176.640 115.411,176.200 115.600 M173.000 116.586 C 171.455 117.293,172.174 117.303,174.000 116.600 C 174.770 116.303,175.130 116.055,174.800 116.048 C 174.470 116.042,173.660 116.283,173.000 116.586 M192.976 117.380 C 192.227 117.940,192.232 117.952,193.106 117.732 C 193.605 117.606,194.110 117.345,194.230 117.152 C 194.568 116.604,193.836 116.738,192.976 117.380 M130.000 119.280 C 106.916 128.936,88.300 149.115,80.811 172.600 C 78.476 179.924,78.455 180.000,78.223 182.000 C 77.960 184.266,78.795 181.575,80.767 173.800 C 81.890 169.369,88.223 155.846,90.241 153.569 C 90.548 153.221,90.800 152.794,90.800 152.619 C 90.800 152.245,96.313 144.927,98.138 142.879 C 107.043 132.884,117.994 124.849,129.000 120.232 C 129.880 119.863,130.913 119.390,131.295 119.181 C 131.677 118.971,132.251 118.800,132.571 118.800 C 132.891 118.800,133.264 118.620,133.400 118.400 C 133.780 117.785,133.244 117.923,130.000 119.280 M167.700 118.412 C 166.361 118.951,166.611 119.224,168.000 118.740 C 168.660 118.510,169.200 118.249,169.200 118.161 C 169.200 117.924,168.713 118.005,167.700 118.412 M163.664 120.064 C 162.709 120.503,162.017 120.950,162.125 121.058 C 162.233 121.167,163.194 120.801,164.261 120.246 C 166.558 119.051,166.146 118.925,163.664 120.064 M185.497 121.566 C 184.125 122.445,183.760 122.801,184.233 122.798 C 184.435 122.797,185.140 122.353,185.800 121.812 C 187.199 120.666,187.067 120.559,185.497 121.566 M222.297 121.566 C 220.925 122.445,220.560 122.801,221.033 122.798 C 221.235 122.797,221.940 122.353,222.600 121.812 C 223.999 120.666,223.867 120.559,222.297 121.566 M158.143 122.900 C 157.239 123.395,156.072 124.118,155.549 124.507 C 155.027 124.896,155.680 124.641,157.000 123.942 C 159.255 122.747,160.399 122.000,159.974 122.000 C 159.871 122.000,159.048 122.405,158.143 122.900 M182.200 123.806 L 181.000 124.809 182.297 124.104 C 183.011 123.717,183.596 123.265,183.597 123.100 C 183.601 122.663,183.519 122.704,182.200 123.806 M179.400 125.835 L 178.200 126.866 179.500 126.006 C 180.215 125.533,180.800 125.068,180.800 124.973 C 180.800 124.673,180.631 124.778,179.400 125.835 M216.200 125.835 L 215.000 126.866 216.300 126.006 C 217.015 125.533,217.600 125.068,217.600 124.973 C 217.600 124.673,217.431 124.778,216.200 125.835 M152.900 126.046 C 151.537 126.919,151.095 127.506,152.300 126.843 C 153.218 126.339,154.656 125.227,154.400 125.219 C 154.290 125.216,153.615 125.588,152.900 126.046 M189.300 126.046 C 187.937 126.919,187.495 127.506,188.700 126.843 C 189.618 126.339,191.056 125.227,190.800 125.219 C 190.690 125.216,190.015 125.588,189.300 126.046 M174.500 129.610 C 172.685 131.156,171.200 132.515,171.200 132.630 C 171.200 132.746,172.730 131.552,174.600 129.977 C 177.600 127.451,178.276 126.800,177.900 126.800 C 177.845 126.800,176.315 128.065,174.500 129.610 M212.800 128.434 L 211.000 130.065 212.900 128.584 C 214.566 127.286,215.059 126.797,214.700 126.801 C 214.645 126.802,213.790 127.536,212.800 128.434 M148.522 129.037 L 147.400 130.073 148.700 129.209 C 149.891 128.418,150.279 128.000,149.822 128.000 C 149.725 128.000,149.140 128.467,148.522 129.037 M220.167 129.829 L 218.600 131.258 220.300 129.962 C 221.853 128.778,222.232 128.400,221.867 128.400 C 221.793 128.400,221.028 129.043,220.167 129.829 M143.722 132.708 C 141.919 134.189,140.434 135.546,140.422 135.724 C 140.410 135.903,141.930 134.746,143.800 133.154 C 146.825 130.578,147.454 129.978,147.100 130.008 C 147.045 130.013,145.525 131.228,143.722 132.708 M209.173 131.505 L 207.800 132.998 209.198 131.799 C 209.967 131.140,210.672 130.555,210.765 130.500 C 210.857 130.445,210.846 130.313,210.739 130.206 C 210.633 130.099,209.928 130.684,209.173 131.505 M326.000 130.506 C 326.000 130.594,326.765 131.274,327.700 132.017 C 328.635 132.760,329.146 133.052,328.836 132.665 C 328.251 131.937,326.000 130.223,326.000 130.506 M331.583 135.300 C 332.564 136.345,333.419 137.200,333.483 137.200 C 333.784 137.200,333.466 136.841,331.700 135.183 L 329.800 133.400 331.583 135.300 M174.191 138.500 L 171.000 141.800 174.300 138.609 C 176.115 136.855,177.600 135.370,177.600 135.309 C 177.600 135.018,177.154 135.435,174.191 138.500 M202.851 137.791 C 201.943 138.776,201.200 139.706,201.200 139.858 C 201.200 140.009,201.259 140.058,201.332 139.967 C 201.404 139.875,202.237 138.945,203.183 137.900 C 204.128 136.855,204.812 136.000,204.702 136.000 C 204.592 136.000,203.759 136.806,202.851 137.791 M137.802 137.998 C 137.403 138.439,137.207 138.800,137.367 138.800 C 137.788 138.800,138.928 137.595,138.712 137.379 C 138.611 137.278,138.202 137.556,137.802 137.998 M336.600 140.400 C 337.683 141.500,338.660 142.400,338.770 142.400 C 338.880 142.400,338.083 141.500,337.000 140.400 C 335.917 139.300,334.940 138.400,334.830 138.400 C 334.720 138.400,335.517 139.300,336.600 140.400 M136.000 139.969 C 135.670 140.356,134.862 141.286,134.205 142.036 C 133.547 142.786,133.952 142.507,135.105 141.415 C 136.257 140.323,137.200 139.378,137.200 139.315 C 137.200 138.985,136.527 139.353,136.000 139.969 M163.600 140.600 C 163.083 141.150,162.827 141.594,163.030 141.587 C 163.372 141.576,165.021 139.600,164.688 139.600 C 164.606 139.600,164.117 140.050,163.600 140.600 M206.221 142.729 L 205.043 144.200 206.521 142.822 C 208.049 141.397,208.210 141.180,207.700 141.229 C 207.535 141.245,206.870 141.920,206.221 142.729 M160.923 144.100 C 159.177 146.430,158.267 147.962,159.556 146.400 C 160.901 144.771,162.864 142.000,162.673 142.000 C 162.576 142.000,161.788 142.945,160.923 144.100 M169.429 143.562 L 168.258 145.000 169.609 143.713 C 170.351 143.005,170.878 142.358,170.779 142.275 C 170.681 142.192,170.073 142.771,169.429 143.562 M197.723 144.100 C 195.977 146.430,195.067 147.962,196.356 146.400 C 197.701 144.771,199.664 142.000,199.473 142.000 C 199.376 142.000,198.588 142.945,197.723 144.100 M204.323 145.100 C 203.618 145.921,203.090 146.800,203.301 146.800 C 203.383 146.800,203.849 146.260,204.337 145.600 C 205.301 144.296,205.292 143.972,204.323 145.100 M341.481 146.161 C 341.877 146.689,342.257 147.067,342.328 147.000 C 342.538 146.799,341.434 145.200,341.085 145.200 C 340.908 145.200,341.086 145.632,341.481 146.161 M129.701 147.500 C 128.356 149.229,127.874 150.000,128.139 150.000 C 128.241 150.000,128.972 149.100,129.762 148.000 C 131.441 145.663,131.398 145.317,129.701 147.500 M166.323 147.500 C 165.618 148.321,165.090 149.200,165.301 149.200 C 165.383 149.200,165.849 148.660,166.337 148.000 C 167.301 146.696,167.292 146.372,166.323 147.500 M158.153 148.100 C 156.776 150.436,156.686 150.635,157.387 149.800 C 158.200 148.832,158.900 147.600,158.638 147.600 C 158.533 147.600,158.315 147.825,158.153 148.100 M155.620 152.361 C 155.160 153.263,154.860 154.000,154.952 154.000 C 155.253 154.000,156.838 151.105,156.644 150.911 C 156.541 150.807,156.080 151.460,155.620 152.361 M125.675 153.300 C 124.429 155.123,122.860 158.062,123.488 157.400 C 124.077 156.778,127.236 151.600,127.025 151.600 C 126.923 151.600,126.315 152.365,125.675 153.300 M157.980 160.839 C 157.520 161.740,157.213 162.546,157.297 162.630 C 157.381 162.714,157.841 161.976,158.319 160.991 C 159.409 158.747,159.115 158.615,157.980 160.839 M351.628 162.200 C 351.628 162.420,351.886 163.050,352.200 163.600 C 352.514 164.150,352.772 164.420,352.772 164.200 C 352.772 163.980,352.514 163.350,352.200 162.800 C 351.886 162.250,351.628 161.980,351.628 162.200 M150.200 164.000 C 150.050 164.473,150.017 164.950,150.127 165.060 C 150.237 165.170,150.450 164.873,150.600 164.400 C 150.750 163.927,150.783 163.450,150.673 163.340 C 150.563 163.230,150.350 163.527,150.200 164.000 M149.600 165.703 C 149.600 165.759,149.423 166.422,149.207 167.176 C 148.991 167.929,148.968 168.378,149.155 168.173 C 149.564 167.726,150.103 165.600,149.808 165.600 C 149.693 165.600,149.600 165.646,149.600 165.703 M118.379 167.455 C 118.158 168.036,118.052 168.585,118.143 168.676 C 118.233 168.767,118.499 168.292,118.733 167.620 C 119.253 166.128,118.939 165.982,118.379 167.455 M185.246 169.067 C 185.221 169.324,185.084 169.864,184.941 170.267 C 184.740 170.836,184.794 170.897,185.179 170.542 C 185.452 170.291,185.589 169.751,185.484 169.342 C 185.379 168.934,185.272 168.810,185.246 169.067 M148.273 169.753 C 148.123 170.145,148.011 170.766,148.025 171.133 C 148.042 171.575,148.181 171.474,148.437 170.834 C 148.649 170.303,148.761 169.682,148.685 169.454 C 148.609 169.227,148.424 169.361,148.273 169.753 M111.406 172.253 C 111.277 172.884,111.000 173.948,110.790 174.619 C 110.579 175.289,110.316 176.729,110.205 177.819 C 110.020 179.634,110.036 179.683,110.395 178.400 C 111.410 174.770,112.084 171.550,111.872 171.339 C 111.744 171.211,111.534 171.622,111.406 172.253 M184.249 172.615 C 184.112 172.973,184.015 173.566,184.034 173.933 C 184.053 174.300,184.227 174.069,184.421 173.420 C 184.798 172.158,184.665 171.533,184.249 172.615 M147.249 173.600 C 147.216 173.930,147.089 174.650,146.967 175.200 C 146.775 176.064,146.807 176.103,147.199 175.488 C 147.448 175.097,147.575 174.377,147.481 173.888 C 147.386 173.400,147.282 173.270,147.249 173.600 M115.429 176.229 C 115.281 176.815,115.238 177.372,115.332 177.466 C 115.427 177.560,115.624 177.158,115.771 176.571 C 115.919 175.985,115.962 175.428,115.868 175.334 C 115.773 175.240,115.576 175.642,115.429 176.229 M183.254 177.067 C 183.225 177.544,183.096 178.264,182.970 178.667 C 182.752 179.361,182.764 179.362,183.196 178.688 C 183.447 178.297,183.575 177.577,183.481 177.088 C 183.309 176.201,183.309 176.201,183.254 177.067 M146.222 178.222 C 146.072 179.025,146.038 179.772,146.148 179.882 C 146.258 179.992,146.472 179.425,146.622 178.622 C 146.773 177.819,146.806 177.073,146.696 176.963 C 146.586 176.853,146.373 177.419,146.222 178.222 M151.429 178.229 C 151.281 178.815,151.238 179.372,151.332 179.466 C 151.427 179.560,151.624 179.158,151.771 178.571 C 151.919 177.985,151.962 177.428,151.868 177.334 C 151.773 177.240,151.576 177.642,151.429 178.229 M187.450 178.850 C 187.117 180.517,187.440 180.840,187.800 179.200 C 187.952 178.509,187.993 177.859,187.891 177.758 C 187.789 177.656,187.591 178.147,187.450 178.850 M114.658 179.070 C 114.539 179.471,114.349 180.520,114.234 181.400 C 114.075 182.629,114.157 182.493,114.590 180.810 C 115.105 178.810,115.161 177.361,114.658 179.070 M109.424 181.459 C 109.298 182.307,109.017 183.999,108.799 185.220 C 108.580 186.441,108.325 189.951,108.231 193.020 C 108.042 199.225,108.204 198.689,108.780 191.200 C 108.992 188.450,109.365 184.877,109.609 183.260 C 109.853 181.643,109.962 180.229,109.852 180.119 C 109.742 180.009,109.549 180.612,109.424 181.459 M358.028 180.833 C 358.044 181.365,358.219 182.160,358.419 182.600 C 358.671 183.158,358.707 182.915,358.538 181.800 C 358.255 179.943,357.987 179.436,358.028 180.833 M145.463 182.482 C 144.781 187.510,144.718 188.181,144.952 187.963 C 145.261 187.676,146.107 181.174,145.867 180.933 C 145.773 180.840,145.591 181.536,145.463 182.482 M182.218 182.618 C 182.065 183.639,182.022 184.555,182.122 184.655 C 182.222 184.755,182.429 184.002,182.582 182.982 C 182.735 181.961,182.778 181.045,182.678 180.945 C 182.578 180.845,182.371 181.598,182.218 182.618 M150.667 181.467 C 150.520 181.613,150.415 182.198,150.434 182.767 C 150.468 183.781,150.475 183.779,150.821 182.620 C 151.185 181.403,151.131 181.002,150.667 181.467 M186.649 182.615 C 186.512 182.973,186.415 183.566,186.434 183.933 C 186.453 184.300,186.627 184.069,186.821 183.420 C 187.198 182.158,187.065 181.533,186.649 182.615 M113.476 184.410 C 113.330 184.955,113.227 185.850,113.246 186.400 C 113.271 187.118,113.384 186.957,113.649 185.827 C 114.055 184.095,113.900 182.825,113.476 184.410 M77.624 184.200 C 77.602 184.420,77.319 186.580,76.996 189.000 C 75.993 196.492,76.577 214.782,77.858 215.974 C 78.123 216.222,77.811 212.978,77.146 208.594 C 76.641 205.262,76.905 192.399,77.572 187.852 C 77.827 186.120,77.951 184.500,77.849 184.252 C 77.747 184.003,77.645 183.980,77.624 184.200 M359.058 186.400 C 359.375 188.125,359.602 188.451,359.594 187.167 C 359.591 186.635,359.411 185.930,359.194 185.600 C 358.918 185.178,358.877 185.415,359.058 186.400 M149.429 188.829 C 149.276 190.179,149.233 191.366,149.333 191.467 C 149.434 191.567,149.644 190.547,149.800 189.200 C 149.956 187.853,149.999 186.666,149.895 186.562 C 149.791 186.458,149.581 187.478,149.429 188.829 M185.709 189.200 C 185.709 190.190,185.787 190.595,185.882 190.100 C 185.978 189.605,185.978 188.795,185.882 188.300 C 185.787 187.805,185.709 188.210,185.709 189.200 M112.653 190.036 C 112.514 190.731,112.427 192.673,112.459 194.350 C 112.518 197.361,112.522 197.346,112.818 193.200 C 113.130 188.823,113.081 187.893,112.653 190.036 M181.081 192.955 C 180.913 195.130,180.855 196.988,180.951 197.084 C 181.212 197.345,181.696 191.587,181.530 190.200 C 181.451 189.540,181.249 190.780,181.081 192.955 M144.261 192.700 C 143.938 196.120,143.986 207.163,144.335 209.800 C 144.481 210.900,144.600 206.895,144.600 200.900 C 144.600 194.905,144.581 190.000,144.558 190.000 C 144.535 190.000,144.401 191.215,144.261 192.700 M185.293 192.400 C 185.293 193.170,185.375 193.485,185.476 193.100 C 185.576 192.715,185.576 192.085,185.476 191.700 C 185.375 191.315,185.293 191.630,185.293 192.400 M360.166 200.000 C 360.166 204.070,360.225 205.735,360.298 203.700 C 360.371 201.665,360.371 198.335,360.298 196.300 C 360.225 194.265,360.166 195.930,360.166 200.000 M148.940 199.600 C 148.940 201.470,149.009 202.235,149.093 201.300 C 149.177 200.365,149.177 198.835,149.093 197.900 C 149.009 196.965,148.940 197.730,148.940 199.600 M112.471 205.400 C 112.476 207.600,112.614 209.850,112.778 210.400 C 112.942 210.950,112.999 209.330,112.906 206.800 C 112.689 200.946,112.461 200.209,112.471 205.400 M108.207 209.048 C 108.300 211.495,108.559 214.285,108.783 215.248 C 109.007 216.212,109.295 217.693,109.421 218.541 C 109.548 219.388,109.750 219.983,109.871 219.863 C 109.991 219.742,109.866 218.419,109.592 216.922 C 109.317 215.425,108.856 212.040,108.566 209.400 L 108.039 204.600 108.207 209.048 M181.088 209.000 C 181.209 210.760,181.374 212.275,181.454 212.367 C 181.729 212.680,181.506 208.203,181.187 207.000 C 180.999 206.290,180.959 207.106,181.088 209.000 M185.293 207.600 C 185.293 208.370,185.375 208.685,185.476 208.300 C 185.576 207.915,185.576 207.285,185.476 206.900 C 185.375 206.515,185.293 206.830,185.293 207.600 M149.276 209.200 C 149.267 209.750,149.403 211.010,149.580 212.000 C 149.820 213.350,149.907 213.500,149.927 212.600 C 149.942 211.940,149.805 210.680,149.623 209.800 C 149.416 208.798,149.286 208.574,149.276 209.200 M185.709 210.800 C 185.709 211.790,185.787 212.195,185.882 211.700 C 185.978 211.205,185.978 210.395,185.882 209.900 C 185.787 209.405,185.709 209.810,185.709 210.800 M359.254 212.667 C 359.225 213.144,359.096 213.864,358.970 214.267 C 358.752 214.961,358.764 214.962,359.196 214.288 C 359.447 213.897,359.575 213.177,359.481 212.688 C 359.309 211.801,359.309 211.801,359.254 212.667 M113.275 213.800 C 113.265 214.460,113.411 215.360,113.600 215.800 L 113.944 216.600 113.925 215.800 C 113.914 215.360,113.768 214.460,113.600 213.800 L 113.295 212.600 113.275 213.800 M145.069 215.200 C 145.205 216.410,145.456 217.760,145.629 218.200 C 145.801 218.640,145.838 218.010,145.712 216.800 C 145.585 215.590,145.333 214.240,145.152 213.800 C 144.960 213.333,144.925 213.916,145.069 215.200 M182.028 216.433 C 182.044 216.965,182.219 217.760,182.419 218.200 C 182.671 218.758,182.707 218.515,182.538 217.400 C 182.255 215.543,181.987 215.036,182.028 216.433 M186.406 216.233 C 186.409 216.655,186.595 217.270,186.818 217.600 C 187.115 218.038,187.152 217.876,186.956 217.000 C 186.627 215.529,186.398 215.210,186.406 216.233 M78.213 218.000 C 78.456 220.003,78.481 220.093,80.811 227.400 C 88.319 250.946,107.094 271.256,130.139 280.761 C 131.865 281.473,133.376 281.957,133.496 281.837 C 133.616 281.717,133.374 281.505,132.957 281.367 C 132.541 281.228,131.570 280.851,130.800 280.530 C 130.030 280.209,129.040 279.796,128.600 279.613 C 118.214 275.291,106.853 266.902,98.138 257.121 C 96.313 255.073,90.800 247.755,90.800 247.381 C 90.800 247.206,90.547 246.779,90.238 246.431 C 89.170 245.232,85.657 238.551,83.490 233.600 C 82.050 230.310,80.117 224.335,79.154 220.200 C 78.393 216.933,77.960 215.921,78.213 218.000 M150.400 217.310 C 150.400 217.883,150.587 218.468,150.816 218.610 C 151.089 218.779,151.138 218.477,150.960 217.734 C 150.592 216.201,150.400 216.056,150.400 217.310 M114.253 218.800 C 114.384 219.790,114.647 220.870,114.838 221.200 C 115.224 221.866,114.882 219.655,114.343 218.000 C 114.129 217.344,114.098 217.620,114.253 218.800 M146.068 220.200 C 146.062 220.640,146.211 221.360,146.400 221.800 C 146.838 222.819,146.838 221.768,146.400 220.400 C 146.143 219.596,146.077 219.557,146.068 220.200 M187.268 220.000 C 187.288 221.039,187.918 222.746,187.932 221.800 C 187.938 221.360,187.789 220.640,187.600 220.200 C 187.389 219.710,187.261 219.632,187.268 220.000 M110.216 221.800 C 110.335 222.680,110.591 223.850,110.784 224.400 C 110.977 224.950,111.248 225.916,111.387 226.547 C 111.526 227.178,111.749 227.584,111.884 227.450 C 112.105 227.229,111.250 223.741,110.352 221.200 C 110.080 220.430,110.049 220.568,110.216 221.800 M151.256 220.800 C 151.256 221.130,151.411 221.760,151.600 222.200 C 151.817 222.704,151.944 222.778,151.944 222.400 C 151.944 222.070,151.789 221.440,151.600 221.000 C 151.383 220.496,151.256 220.422,151.256 220.800 M183.044 221.400 C 183.373 222.871,183.602 223.190,183.594 222.167 C 183.591 221.745,183.405 221.130,183.182 220.800 C 182.885 220.362,182.848 220.524,183.044 221.400 M115.256 222.800 C 115.256 223.130,115.411 223.760,115.600 224.200 C 115.817 224.704,115.944 224.778,115.944 224.400 C 115.944 224.070,115.789 223.440,115.600 223.000 C 115.383 222.496,115.256 222.422,115.256 222.800 M147.029 224.400 C 147.173 225.170,147.448 226.070,147.639 226.400 C 147.855 226.773,147.893 226.471,147.738 225.600 C 147.602 224.830,147.327 223.930,147.128 223.600 C 146.893 223.212,146.858 223.494,147.029 224.400 M112.000 228.368 C 112.000 228.802,112.746 230.888,114.040 234.076 C 114.459 235.107,114.986 236.437,115.212 237.031 C 115.438 237.625,115.723 238.011,115.845 237.888 C 115.968 237.765,115.765 236.975,115.393 236.132 C 113.435 231.686,112.800 229.982,112.800 229.175 C 112.800 228.775,112.620 228.336,112.400 228.200 C 112.180 228.064,112.000 228.140,112.000 228.368 M149.003 230.800 C 149.477 232.415,150.049 233.177,149.754 231.800 C 149.612 231.140,149.320 230.420,149.103 230.200 C 148.845 229.937,148.811 230.143,149.003 230.800 M118.218 232.100 C 118.368 232.595,118.655 233.176,118.856 233.391 C 119.057 233.606,119.019 233.201,118.772 232.491 C 118.265 231.038,117.797 230.708,118.218 232.100 M150.814 235.420 C 150.822 235.629,151.099 236.250,151.431 236.800 L 152.033 237.800 151.772 236.800 C 151.499 235.757,150.789 234.733,150.814 235.420 M352.065 236.617 C 351.395 238.088,351.523 238.402,352.247 237.065 C 352.586 236.440,352.788 235.854,352.696 235.763 C 352.605 235.671,352.321 236.056,352.065 236.617 M157.200 237.349 C 157.200 237.781,158.789 240.800,159.016 240.800 C 159.126 240.800,158.830 240.035,158.359 239.100 C 157.432 237.261,157.200 236.911,157.200 237.349 M116.000 238.656 C 116.000 239.387,120.835 247.965,123.408 251.800 C 131.246 263.481,142.286 274.267,151.613 279.357 C 153.683 280.486,152.595 279.580,149.104 277.267 C 136.427 268.868,124.467 255.117,117.647 241.100 C 116.445 238.630,116.000 237.969,116.000 238.656 M189.681 240.191 C 190.159 241.176,190.619 241.914,190.703 241.830 C 190.884 241.649,189.268 238.400,188.997 238.400 C 188.894 238.400,189.202 239.206,189.681 240.191 M152.800 239.754 C 152.800 240.181,155.497 245.313,156.196 246.218 C 156.529 246.648,155.975 245.380,154.964 243.400 C 153.095 239.740,152.800 239.243,152.800 239.754 M124.162 244.215 C 124.752 245.324,125.686 246.764,126.237 247.415 C 126.814 248.097,126.524 247.411,125.553 245.800 C 123.489 242.372,122.703 241.477,124.162 244.215 M127.791 249.845 C 128.185 250.529,129.121 251.789,129.872 252.645 C 130.848 253.756,130.708 253.458,129.381 251.600 C 127.229 248.586,126.787 248.098,127.791 249.845 M158.211 249.600 C 158.926 250.906,161.642 254.800,161.839 254.800 C 162.094 254.800,161.833 254.362,160.050 251.800 C 158.568 249.670,157.645 248.566,158.211 249.600 M164.323 249.800 C 164.555 250.240,165.313 251.230,166.008 252.000 L 167.272 253.400 165.965 251.600 C 164.364 249.396,163.764 248.738,164.323 249.800 M197.600 253.600 C 198.070 254.260,198.544 254.800,198.654 254.800 C 198.764 254.800,198.470 254.260,198.000 253.600 C 197.530 252.940,197.056 252.400,196.946 252.400 C 196.836 252.400,197.130 252.940,197.600 253.600 M341.481 253.839 C 341.086 254.368,340.908 254.800,341.085 254.800 C 341.434 254.800,342.538 253.201,342.328 253.000 C 342.257 252.933,341.877 253.311,341.481 253.839 M203.564 253.933 C 203.780 254.336,204.271 254.921,204.655 255.233 C 205.087 255.584,204.990 255.304,204.401 254.500 C 203.351 253.065,202.957 252.798,203.564 253.933 M164.474 258.489 C 167.287 262.152,174.825 269.889,177.600 271.962 C 178.632 272.733,178.119 272.134,176.400 270.559 C 171.957 266.487,168.288 262.630,165.123 258.700 C 161.560 254.276,161.133 254.137,164.474 258.489 M206.201 257.198 C 206.860 257.967,207.445 258.672,207.500 258.765 C 207.555 258.857,207.687 258.846,207.794 258.739 C 207.901 258.633,207.316 257.928,206.495 257.173 L 205.002 255.800 206.201 257.198 M134.205 257.964 C 136.164 260.200,136.858 260.875,137.024 260.709 C 137.111 260.623,136.243 259.663,135.096 258.576 C 133.948 257.489,133.547 257.214,134.205 257.964 M336.585 259.700 L 334.600 261.800 336.700 259.815 C 337.855 258.723,338.800 257.778,338.800 257.715 C 338.800 257.417,338.429 257.749,336.585 259.700 M174.800 262.200 C 176.881 264.290,178.674 266.000,178.784 266.000 C 178.894 266.000,177.281 264.290,175.200 262.200 C 173.119 260.110,171.326 258.400,171.216 258.400 C 171.106 258.400,172.719 260.110,174.800 262.200 M204.600 262.400 C 205.683 263.500,206.647 264.400,206.741 264.400 C 207.080 264.400,203.391 260.480,203.015 260.441 C 202.803 260.418,203.517 261.300,204.600 262.400 M137.802 262.002 C 138.202 262.444,138.611 262.722,138.712 262.621 C 138.928 262.405,137.788 261.200,137.367 261.200 C 137.207 261.200,137.403 261.561,137.802 262.002 M331.600 264.600 C 330.628 265.590,329.923 266.400,330.033 266.400 C 330.143 266.400,331.028 265.590,332.000 264.600 C 332.972 263.610,333.677 262.800,333.567 262.800 C 333.457 262.800,332.572 263.610,331.600 264.600 M140.419 264.276 C 140.441 264.646,147.200 270.253,147.200 269.900 C 147.200 269.813,145.670 268.439,143.800 266.846 C 141.930 265.254,140.409 264.097,140.419 264.276 M206.915 265.052 C 207.261 265.625,213.600 271.352,213.600 271.092 C 213.600 270.985,212.034 269.481,210.121 267.749 C 208.208 266.017,206.765 264.804,206.915 265.052 M327.400 268.260 C 326.195 269.336,326.105 269.485,327.036 268.863 C 328.141 268.124,329.532 266.776,329.149 266.815 C 329.067 266.823,328.280 267.473,327.400 268.260 M219.164 269.335 C 219.749 270.063,222.000 271.777,222.000 271.494 C 222.000 271.406,221.235 270.726,220.300 269.983 C 219.365 269.240,218.854 268.948,219.164 269.335 M147.967 270.537 C 148.540 271.250,150.000 272.187,150.000 271.841 C 150.000 271.739,149.415 271.244,148.700 270.743 C 147.778 270.096,147.565 270.036,147.967 270.537 M214.013 271.500 C 214.019 271.665,214.514 272.146,215.113 272.568 L 216.200 273.336 215.230 272.268 C 214.211 271.146,213.992 271.007,214.013 271.500 M152.200 273.407 C 152.640 273.766,153.360 274.235,153.800 274.451 L 154.600 274.844 153.800 274.193 C 153.360 273.834,152.640 273.365,152.200 273.149 L 151.400 272.756 152.200 273.407 M188.600 273.407 C 189.040 273.766,189.760 274.235,190.200 274.451 L 191.000 274.844 190.200 274.193 C 189.760 273.834,189.040 273.365,188.600 273.149 L 187.800 272.756 188.600 273.407 M179.929 273.705 C 180.471 274.367,186.676 278.705,188.300 279.556 C 189.996 280.445,189.201 279.669,187.100 278.385 C 185.945 277.678,183.740 276.191,182.200 275.079 C 180.660 273.967,179.638 273.349,179.929 273.705 M217.755 274.520 C 218.611 275.275,219.871 276.213,220.555 276.603 C 222.290 277.593,221.443 276.826,218.600 274.831 C 216.495 273.355,216.391 273.317,217.755 274.520 M154.800 274.962 C 154.800 275.194,158.411 277.382,159.400 277.750 C 159.881 277.929,160.040 277.904,159.800 277.689 C 159.226 277.174,154.800 274.760,154.800 274.962 M223.377 278.363 C 223.528 278.606,224.224 279.083,224.925 279.422 C 226.109 279.994,226.143 279.992,225.400 279.390 C 224.185 278.405,223.045 277.826,223.377 278.363 M162.000 278.981 C 162.000 279.185,165.564 280.810,165.951 280.782 C 166.267 280.759,162.704 278.842,162.300 278.818 C 162.135 278.808,162.000 278.882,162.000 278.981 M153.800 280.606 C 154.880 281.492,159.768 283.819,164.400 285.654 L 168.200 287.158 163.800 287.176 C 161.380 287.186,158.320 287.030,157.000 286.829 C 153.250 286.260,148.844 285.966,150.000 286.362 C 152.755 287.306,167.137 288.008,168.322 287.256 C 168.805 286.951,165.389 285.200,164.310 285.200 C 164.099 285.200,161.648 284.078,158.863 282.706 C 153.100 279.867,152.693 279.698,153.800 280.606 M166.800 281.031 C 166.800 281.301,168.878 282.056,169.076 281.857 C 169.167 281.767,168.692 281.501,168.020 281.267 C 167.349 281.033,166.800 280.927,166.800 281.031 M134.000 282.146 C 134.000 282.681,146.316 286.032,147.991 285.952 C 148.636 285.921,148.350 285.768,147.200 285.527 C 143.755 284.805,138.512 283.378,136.292 282.557 C 134.801 282.006,134.000 281.863,134.000 282.146 M173.000 283.414 C 173.660 283.717,174.470 283.958,174.800 283.952 C 175.130 283.945,174.770 283.697,174.000 283.400 C 172.174 282.697,171.455 282.707,173.000 283.414 M176.200 284.400 C 176.640 284.589,177.270 284.744,177.600 284.744 C 177.978 284.744,177.904 284.617,177.400 284.400 C 176.960 284.211,176.330 284.056,176.000 284.056 C 175.622 284.056,175.696 284.183,176.200 284.400 M179.200 285.200 C 179.530 285.413,180.250 285.573,180.800 285.554 L 181.800 285.520 180.800 285.200 C 179.258 284.706,178.436 284.706,179.200 285.200 M215.600 285.182 C 215.930 285.405,216.545 285.591,216.967 285.594 C 217.990 285.602,217.671 285.373,216.200 285.044 C 215.324 284.848,215.162 284.885,215.600 285.182 M200.800 285.600 C 201.130 285.813,201.670 285.988,202.000 285.988 C 202.533 285.988,202.533 285.945,202.000 285.600 C 201.670 285.387,201.130 285.212,200.800 285.212 C 200.267 285.212,200.267 285.255,200.800 285.600 M185.200 286.380 C 186.199 286.720,188.682 286.932,188.367 286.651 C 188.275 286.569,187.300 286.399,186.200 286.272 C 184.851 286.116,184.526 286.151,185.200 286.380 M202.800 286.213 C 202.800 286.330,203.205 286.601,203.700 286.815 C 204.315 287.081,202.254 287.168,197.200 287.089 C 193.130 287.025,190.340 287.093,191.000 287.239 C 192.744 287.626,204.108 287.646,204.711 287.263 C 205.081 287.028,204.938 286.809,204.193 286.469 C 203.045 285.946,202.800 285.901,202.800 286.213 M221.400 286.400 C 223.092 286.831,224.544 286.831,223.200 286.400 C 222.650 286.224,221.750 286.083,221.200 286.087 C 220.302 286.094,220.322 286.126,221.400 286.400 M240.400 286.585 C 241.374 287.128,241.347 287.147,239.400 287.299 L 237.400 287.456 239.476 287.528 C 241.796 287.608,242.603 287.010,240.998 286.399 C 239.516 285.836,239.220 285.928,240.400 286.585 M286.600 286.410 C 286.066 286.647,286.398 286.686,287.600 286.527 C 288.590 286.396,289.475 286.224,289.567 286.144 C 289.914 285.843,287.364 286.072,286.600 286.410 M227.005 287.233 C 227.442 287.404,229.600 287.542,231.800 287.540 C 234.000 287.538,235.620 287.475,235.400 287.398 C 234.548 287.103,226.255 286.940,227.005 287.233 M263.266 287.249 C 263.560 287.435,264.700 287.576,265.800 287.562 C 268.195 287.532,267.797 287.329,264.866 287.087 C 263.618 286.984,262.954 287.051,263.266 287.249 M279.800 287.200 L 277.800 287.474 279.800 287.531 C 280.900 287.562,282.070 287.413,282.400 287.200 C 283.096 286.750,283.079 286.750,279.800 287.200 " stroke="none" fill="#f4cc83" fill-rule="evenodd"></path></g></svg>